<?xml version="1.0" encoding="utf-8"?>
<!-- Generator: Adobe Illustrator 22.1.0, SVG Export Plug-In . SVG Version: 6.00 Build 0)  -->
<svg version="1.1" id="Layer_1" xmlns="http://www.w3.org/2000/svg" xmlns:xlink="http://www.w3.org/1999/xlink" x="0px" y="0px"
	 viewBox="0 0 1063.3 182.7" style="enable-background:new 0 0 1063.3 182.7;" xml:space="preserve">
<style type="text/css">
	.st0{fill:none;stroke:#AAAAAA;stroke-width:2;}
	.st1{fill:#222222;stroke:#4682B4;stroke-width:3;}
	.st2{enable-background:new    ;}
	.st3{fill:#EEEEEE;}
</style>
<path class="st0" d="M818,139.9c90,0,90-26.3,180-26.3"/>
<path class="st0" d="M818,139.9c90,0,90,26.3,180,26.3"/>
<path class="st0" d="M638,113.6c90,0,90-26.3,180-26.3"/>
<path class="st0" d="M638,113.6c90,0,90,26.3,180,26.3"/>
<path class="st0" d="M458,87.3c90,0,90-26.3,180-26.3"/>
<path class="st0" d="M458,87.3c90,0,90,26.3,180,26.3"/>
<path class="st0" d="M278,61c90,0,90-26.3,180-26.3"/>
<path class="st0" d="M278,61c90,0,90,26.3,180,26.3"/>
<path class="st0" d="M98,34.7c90,0,90-26.3,180-26.3"/>
<path class="st0" d="M98,34.7c90,0,90,26.3,180,26.3"/>
<g transform="translate(1800,2829.9713438946533)">
	<circle class="st1" cx="-802" cy="-2660.5" r="10"/>
	<g>
		<g class="st2">
			<path class="st3" d="M-890.7-2655.6v-9.7h1.4v9.7H-890.7z M-889.9-2660.4v-0.7h2.8v0.7H-889.9z M-889.4-2660.8v-0.6h1.6
				c0.5,0,0.9-0.1,1.2-0.3c0.3-0.2,0.4-0.6,0.4-1c0-0.4-0.1-0.7-0.4-1c-0.3-0.2-0.7-0.3-1.3-0.3h-1.5l-0.2-1.3h1.8
				c1,0,1.7,0.2,2.3,0.6c0.5,0.4,0.8,1,0.8,1.8c0,0.7-0.3,1.2-0.8,1.5c-0.5,0.4-1.2,0.5-2.2,0.5H-889.4z M-889.4-2655.6v-1.3h2.1
				c0.6,0,1.1-0.1,1.4-0.4c0.3-0.3,0.5-0.7,0.5-1.2c0-0.5-0.2-0.9-0.5-1.2c-0.3-0.3-0.8-0.4-1.5-0.4h-1.9l-0.2-0.6h2.4
				c1,0,1.7,0.2,2.3,0.6s0.8,1,0.8,1.8c0,0.8-0.3,1.5-0.8,2s-1.2,0.7-2.2,0.7H-889.4z"/>
			<path class="st3" d="M-882.5-2655.6v-1.2h2.9v1.2H-882.5z M-882.1-2661.7v-1.2h3.8v1.2H-882.1z M-879.1-2664
				c-0.3,0-0.5-0.1-0.7-0.3c-0.2-0.2-0.3-0.4-0.3-0.7c0-0.3,0.1-0.5,0.3-0.7c0.2-0.2,0.4-0.3,0.7-0.3c0.3,0,0.5,0.1,0.7,0.3
				s0.3,0.4,0.3,0.7c0,0.3-0.1,0.5-0.3,0.7C-878.6-2664.1-878.8-2664-879.1-2664z M-879.7-2655.6v-6.8h1.4v6.8H-879.7z
				 M-878.4-2655.6v-1.2h2.4v1.2H-878.4z"/>
			<path class="st3" d="M-874.2-2655.6v-7.2h1.3l0.1,1.5v5.7H-874.2z M-869.8-2655.6v-4.7c0-0.4-0.1-0.8-0.3-1s-0.5-0.4-1-0.4
				c-1.1,0-1.7,0.7-1.7,2l-0.4-1.9h0.6c0-0.5,0.2-0.9,0.5-1.1c0.3-0.2,0.8-0.4,1.4-0.4c0.8,0,1.4,0.2,1.8,0.7s0.6,1.1,0.6,2v4.7
				H-869.8z"/>
			<path class="st3" d="M-864.2-2655.5c-0.8,0-1.3-0.2-1.8-0.5s-0.6-0.9-0.6-1.5c0-0.8,0.3-1.4,0.9-1.8c0.6-0.4,1.4-0.6,2.4-0.6
				c0.4,0,0.8,0,1.2,0.1c0.3,0.1,0.6,0.1,0.9,0.2l-0.3,1c-0.3-0.1-0.6-0.1-0.9-0.1c-0.3,0-0.6,0-0.9,0c-1.3,0-1.9,0.4-1.9,1.1
				c0,0.3,0.1,0.6,0.3,0.8c0.2,0.2,0.5,0.3,0.9,0.3c0.5,0,0.8-0.1,1.1-0.2c0.3-0.2,0.5-0.4,0.7-0.6s0.2-0.5,0.2-0.7v-0.8l0.4,1.9
				h-0.6l0.2-0.2c0,0.4-0.1,0.8-0.3,1c-0.2,0.3-0.5,0.5-0.8,0.6C-863.3-2655.6-863.7-2655.5-864.2-2655.5z M-861.6-2655.6l-0.1-2.1
				l-0.2-0.6v-1.9c0-0.5-0.2-0.8-0.5-1.1c-0.3-0.2-0.8-0.3-1.5-0.4l-1.7,0l0.1-1.3l1.5,0c1.2,0,2.1,0.3,2.7,0.8
				c0.6,0.5,0.9,1.2,0.9,2.2v3l1.2,0.2v1.2L-861.6-2655.6z"/>
			<path class="st3" d="M-858.4-2655.6v-1.2h4.8v1.2H-858.4z M-858.2-2661.7v-1.2h2.4l0.1,1.2H-858.2z M-856.8-2655.6v-7.2h1.2
				l0.3,2.1v5.2H-856.8z M-855.4-2658.7l-0.4-2.3h0.6c0.1-1.3,0.7-2,2-2c0.7,0,1.3,0.2,1.6,0.6s0.5,1.1,0.5,2.1h-1.4
				c0-0.5-0.1-0.9-0.2-1.1c-0.2-0.2-0.4-0.3-0.8-0.3c-0.6,0-1.1,0.3-1.4,0.8C-855.2-2660.5-855.4-2659.7-855.4-2658.7z"/>
			<path class="st3" d="M-847.5-2655.6l-2.9-7.2h1.5l2.4,6.2h0.2v1.1H-847.5z M-850.3-2652.3l-0.1-1.3l1.1-0.1
				c0.5-0.1,0.9-0.2,1.2-0.4c0.3-0.2,0.6-0.5,0.9-0.9c0.2-0.4,0.5-0.9,0.6-1.5l1.8-6.3h1.5l-2.1,6.6c-0.3,0.9-0.6,1.6-0.9,2.1
				c-0.3,0.5-0.7,0.9-1.2,1.2c-0.5,0.3-1,0.4-1.7,0.5L-850.3-2652.3z"/>
			<path class="st3" d="M-836.9-2654.2c-0.7,0-1.3-0.2-1.7-0.7c-0.4-0.4-0.6-1.1-0.6-1.9c0-0.4,0-0.8,0.1-1.1s0.1-0.8,0.1-1.2
				c0-0.3-0.1-0.5-0.3-0.6c-0.2-0.1-0.5-0.2-0.8-0.3c-0.3-0.1-0.5-0.1-0.8-0.1v-1.1c0.2,0,0.3,0,0.6-0.1c0.2,0,0.4-0.1,0.6-0.2
				c0.2-0.1,0.4-0.2,0.5-0.3c0.1-0.1,0.2-0.3,0.2-0.4c0-0.4,0-0.8-0.1-1.2s-0.1-0.7-0.1-1.1c0-0.8,0.2-1.4,0.6-1.8
				c0.4-0.4,1-0.6,1.7-0.6c0.3,0,0.5,0,0.7,0c0.2,0,0.3,0.1,0.5,0.1l-0.2,1.2c-0.2,0-0.3,0-0.5-0.1c-0.1,0-0.3,0-0.4,0
				c-0.3,0-0.6,0.1-0.7,0.3c-0.2,0.2-0.3,0.5-0.3,0.9c0,0.4,0.1,0.8,0.2,1.1s0.2,0.7,0.2,1.1c0,0.5-0.2,0.8-0.5,1
				c-0.3,0.2-0.8,0.4-1.3,0.4v0.2c0.6,0,1,0.1,1.3,0.4c0.3,0.3,0.5,0.6,0.5,1c0,0.4-0.1,0.8-0.2,1.2s-0.2,0.7-0.2,1.1
				c0,0.4,0.1,0.7,0.3,1c0.2,0.2,0.4,0.3,0.7,0.3c0.1,0,0.3,0,0.4,0c0.1,0,0.3,0,0.5,0l0.2,1.2c-0.2,0-0.3,0.1-0.5,0.1
				C-836.4-2654.2-836.7-2654.2-836.9-2654.2z"/>
			<path class="st3" d="M-830.5-2659.9l-3.2-0.9l0.5-1.4l3,1.3L-830.5-2659.9z M-831.8-2657.4l-1.1-1l2.3-2.4l0.8,0.7L-831.8-2657.4
				z M-830.8-2660.4l-0.2-3.3h1.5l-0.2,3.3H-830.8z M-828.7-2657.4l-1.9-2.7l0.8-0.7l2.3,2.4L-828.7-2657.4z M-830.1-2659.9l-0.4-1
				l3-1.3l0.5,1.4L-830.1-2659.9z"/>
			<path class="st3" d="M-823.6-2654.2c-0.3,0-0.5,0-0.7,0c-0.2,0-0.3-0.1-0.5-0.1l0.2-1.2c0.2,0,0.3,0,0.5,0c0.1,0,0.3,0,0.4,0
				c0.3,0,0.6-0.1,0.7-0.3c0.2-0.2,0.3-0.5,0.3-1c0-0.4-0.1-0.7-0.2-1.1s-0.2-0.7-0.2-1.2c0-0.4,0.2-0.8,0.5-1
				c0.3-0.3,0.8-0.4,1.3-0.4v-0.2c-0.6,0-1-0.1-1.3-0.4c-0.3-0.2-0.5-0.6-0.5-1c0-0.4,0.1-0.8,0.2-1.1s0.2-0.7,0.2-1.1
				c0-0.4-0.1-0.7-0.3-0.9c-0.2-0.2-0.4-0.3-0.7-0.3c-0.1,0-0.3,0-0.4,0c-0.1,0-0.3,0-0.5,0.1l-0.2-1.2c0.2,0,0.3-0.1,0.5-0.1
				c0.2,0,0.4,0,0.7,0c0.7,0,1.3,0.2,1.7,0.6c0.4,0.4,0.6,1,0.6,1.8c0,0.4,0,0.8-0.1,1.1s-0.1,0.8-0.1,1.2c0,0.2,0.1,0.3,0.2,0.4
				c0.1,0.1,0.3,0.2,0.5,0.3c0.2,0.1,0.4,0.1,0.6,0.2c0.2,0,0.4,0.1,0.5,0.1v1.1c-0.2,0-0.5,0-0.8,0.1c-0.3,0.1-0.5,0.2-0.8,0.3
				c-0.2,0.1-0.3,0.3-0.3,0.6c0,0.4,0,0.8,0.1,1.2s0.1,0.8,0.1,1.1c0,0.8-0.2,1.4-0.6,1.9C-822.3-2654.4-822.9-2654.2-823.6-2654.2z
				"/>
		</g>
	</g>
</g>
<g transform="translate(1800,2777.3205546549043)">
	<circle class="st1" cx="-802" cy="-2660.5" r="10"/>
	<g>
		<g class="st2">
			<path class="st3" d="M-784.8-2664v-1.3h5.9v1.3H-784.8z M-784.8-2655.6v-1.3h5.9v1.3H-784.8z M-782.6-2655.6v-9.7h1.4v9.7H-782.6
				z"/>
			<path class="st3" d="M-776.6-2655.6v-7.2h1.3l0.1,1.5v5.7H-776.6z M-772.2-2655.6v-4.7c0-0.4-0.1-0.8-0.3-1s-0.5-0.4-1-0.4
				c-1.1,0-1.7,0.7-1.7,2l-0.4-1.9h0.6c0-0.5,0.2-0.9,0.5-1.1c0.3-0.2,0.8-0.4,1.4-0.4c0.8,0,1.4,0.2,1.8,0.7s0.6,1.1,0.6,2v4.7
				H-772.2z"/>
			<path class="st3" d="M-769.2-2661.7v-1.2h6.6v1.2H-769.2z M-767.3-2659v-6h1.4v6H-767.3z M-764.2-2655.5c-1.1,0-1.9-0.2-2.4-0.7
				c-0.5-0.5-0.7-1.2-0.7-2.2v-1.2h1.4v1.2c0,0.6,0.1,1,0.4,1.3c0.3,0.3,0.7,0.4,1.4,0.4c0.2,0,0.5,0,0.7,0c0.3,0,0.5-0.1,0.9-0.1
				l0.2,1.3c-0.3,0.1-0.6,0.1-0.9,0.1C-763.6-2655.5-763.9-2655.5-764.2-2655.5z"/>
			<path class="st3" d="M-755.7-2654.2c-0.7,0-1.3-0.2-1.7-0.7c-0.4-0.4-0.6-1.1-0.6-1.9c0-0.4,0-0.8,0.1-1.1s0.1-0.8,0.1-1.2
				c0-0.3-0.1-0.5-0.3-0.6c-0.2-0.1-0.5-0.2-0.8-0.3c-0.3-0.1-0.5-0.1-0.8-0.1v-1.1c0.2,0,0.3,0,0.6-0.1c0.2,0,0.4-0.1,0.6-0.2
				c0.2-0.1,0.4-0.2,0.5-0.3c0.1-0.1,0.2-0.3,0.2-0.4c0-0.4,0-0.8-0.1-1.2s-0.1-0.7-0.1-1.1c0-0.8,0.2-1.4,0.6-1.8
				c0.4-0.4,1-0.6,1.7-0.6c0.3,0,0.5,0,0.7,0c0.2,0,0.3,0.1,0.5,0.1l-0.2,1.2c-0.2,0-0.3,0-0.5-0.1c-0.1,0-0.3,0-0.4,0
				c-0.3,0-0.6,0.1-0.7,0.3c-0.2,0.2-0.3,0.5-0.3,0.9c0,0.4,0.1,0.8,0.2,1.1s0.2,0.7,0.2,1.1c0,0.5-0.2,0.8-0.5,1
				c-0.3,0.2-0.8,0.4-1.3,0.4v0.2c0.6,0,1,0.1,1.3,0.4c0.3,0.3,0.5,0.6,0.5,1c0,0.4-0.1,0.8-0.2,1.2s-0.2,0.7-0.2,1.1
				c0,0.4,0.1,0.7,0.3,1c0.2,0.2,0.4,0.3,0.7,0.3c0.1,0,0.3,0,0.4,0c0.1,0,0.3,0,0.5,0l0.2,1.2c-0.2,0-0.3,0.1-0.5,0.1
				C-755.2-2654.2-755.4-2654.2-755.7-2654.2z"/>
			<path class="st3" d="M-752-2655.6v-1.5c1.5-0.8,2.6-1.7,3.4-2.6c0.7-0.9,1.1-1.8,1.1-2.8c0-0.6-0.1-1-0.4-1.3s-0.7-0.4-1.2-0.4
				c-0.4,0-0.8,0.1-1.2,0.3s-0.7,0.5-1,0.9l-0.9-0.9c0.3-0.5,0.8-0.8,1.3-1.1s1.2-0.4,1.8-0.4c1,0,1.8,0.2,2.3,0.7
				c0.5,0.5,0.8,1.2,0.8,2.2c0,1-0.3,1.9-0.9,2.8c-0.6,0.9-1.6,1.8-2.8,2.6v1.5H-752z M-751.6-2655.6v-1.3h5.9v1.3H-751.6z"/>
			<path class="st3" d="M-742.4-2654.2c-0.3,0-0.5,0-0.7,0c-0.2,0-0.3-0.1-0.5-0.1l0.2-1.2c0.2,0,0.3,0,0.5,0c0.1,0,0.3,0,0.4,0
				c0.3,0,0.6-0.1,0.7-0.3c0.2-0.2,0.3-0.5,0.3-1c0-0.4-0.1-0.7-0.2-1.1s-0.2-0.7-0.2-1.2c0-0.4,0.2-0.8,0.5-1
				c0.3-0.3,0.8-0.4,1.3-0.4v-0.2c-0.6,0-1-0.1-1.3-0.4c-0.3-0.2-0.5-0.6-0.5-1c0-0.4,0.1-0.8,0.2-1.1s0.2-0.7,0.2-1.1
				c0-0.4-0.1-0.7-0.3-0.9c-0.2-0.2-0.4-0.3-0.7-0.3c-0.1,0-0.3,0-0.4,0c-0.1,0-0.3,0-0.5,0.1l-0.2-1.2c0.2,0,0.3-0.1,0.5-0.1
				c0.2,0,0.4,0,0.7,0c0.7,0,1.3,0.2,1.7,0.6c0.4,0.4,0.6,1,0.6,1.8c0,0.4,0,0.8-0.1,1.1s-0.1,0.8-0.1,1.2c0,0.2,0.1,0.3,0.2,0.4
				c0.1,0.1,0.3,0.2,0.5,0.3c0.2,0.1,0.4,0.1,0.6,0.2c0.2,0,0.4,0.1,0.5,0.1v1.1c-0.2,0-0.5,0-0.8,0.1c-0.3,0.1-0.5,0.2-0.8,0.3
				c-0.2,0.1-0.3,0.3-0.3,0.6c0,0.4,0,0.8,0.1,1.2s0.1,0.8,0.1,1.1c0,0.8-0.2,1.4-0.6,1.9C-741.1-2654.4-741.6-2654.2-742.4-2654.2z
				"/>
		</g>
	</g>
</g>
<g transform="translate(1620,2803.6459516898717)">
	<circle class="st1" cx="-802" cy="-2660.5" r="10"/>
	<g>
		<g class="st2">
			<path class="st3" d="M-890.7-2655.6v-9.7h1.4v9.7H-890.7z M-889.9-2660.4v-0.7h2.8v0.7H-889.9z M-889.4-2660.8v-0.6h1.6
				c0.5,0,0.9-0.1,1.2-0.3c0.3-0.2,0.4-0.6,0.4-1c0-0.4-0.1-0.7-0.4-1c-0.3-0.2-0.7-0.3-1.3-0.3h-1.5l-0.2-1.3h1.8
				c1,0,1.7,0.2,2.3,0.6c0.5,0.4,0.8,1,0.8,1.8c0,0.7-0.3,1.2-0.8,1.5c-0.5,0.4-1.2,0.5-2.2,0.5H-889.4z M-889.4-2655.6v-1.3h2.1
				c0.6,0,1.1-0.1,1.4-0.4c0.3-0.3,0.5-0.7,0.5-1.2c0-0.5-0.2-0.9-0.5-1.2c-0.3-0.3-0.8-0.4-1.5-0.4h-1.9l-0.2-0.6h2.4
				c1,0,1.7,0.2,2.3,0.6s0.8,1,0.8,1.8c0,0.8-0.3,1.5-0.8,2s-1.2,0.7-2.2,0.7H-889.4z"/>
			<path class="st3" d="M-882.5-2655.6v-1.2h2.9v1.2H-882.5z M-882.1-2661.7v-1.2h3.8v1.2H-882.1z M-879.1-2664
				c-0.3,0-0.5-0.1-0.7-0.3c-0.2-0.2-0.3-0.4-0.3-0.7c0-0.3,0.1-0.5,0.3-0.7c0.2-0.2,0.4-0.3,0.7-0.3c0.3,0,0.5,0.1,0.7,0.3
				s0.3,0.4,0.3,0.7c0,0.3-0.1,0.5-0.3,0.7C-878.6-2664.1-878.8-2664-879.1-2664z M-879.7-2655.6v-6.8h1.4v6.8H-879.7z
				 M-878.4-2655.6v-1.2h2.4v1.2H-878.4z"/>
			<path class="st3" d="M-874.2-2655.6v-7.2h1.3l0.1,1.5v5.7H-874.2z M-869.8-2655.6v-4.7c0-0.4-0.1-0.8-0.3-1s-0.5-0.4-1-0.4
				c-1.1,0-1.7,0.7-1.7,2l-0.4-1.9h0.6c0-0.5,0.2-0.9,0.5-1.1c0.3-0.2,0.8-0.4,1.4-0.4c0.8,0,1.4,0.2,1.8,0.7s0.6,1.1,0.6,2v4.7
				H-869.8z"/>
			<path class="st3" d="M-864.2-2655.5c-0.8,0-1.3-0.2-1.8-0.5s-0.6-0.9-0.6-1.5c0-0.8,0.3-1.4,0.9-1.8c0.6-0.4,1.4-0.6,2.4-0.6
				c0.4,0,0.8,0,1.2,0.1c0.3,0.1,0.6,0.1,0.9,0.2l-0.3,1c-0.3-0.1-0.6-0.1-0.9-0.1c-0.3,0-0.6,0-0.9,0c-1.3,0-1.9,0.4-1.9,1.1
				c0,0.3,0.1,0.6,0.3,0.8c0.2,0.2,0.5,0.3,0.9,0.3c0.5,0,0.8-0.1,1.1-0.2c0.3-0.2,0.5-0.4,0.7-0.6s0.2-0.5,0.2-0.7v-0.8l0.4,1.9
				h-0.6l0.2-0.2c0,0.4-0.1,0.8-0.3,1c-0.2,0.3-0.5,0.5-0.8,0.6C-863.3-2655.6-863.7-2655.5-864.2-2655.5z M-861.6-2655.6l-0.1-2.1
				l-0.2-0.6v-1.9c0-0.5-0.2-0.8-0.5-1.1c-0.3-0.2-0.8-0.3-1.5-0.4l-1.7,0l0.1-1.3l1.5,0c1.2,0,2.1,0.3,2.7,0.8
				c0.6,0.5,0.9,1.2,0.9,2.2v3l1.2,0.2v1.2L-861.6-2655.6z"/>
			<path class="st3" d="M-858.4-2655.6v-1.2h4.8v1.2H-858.4z M-858.2-2661.7v-1.2h2.4l0.1,1.2H-858.2z M-856.8-2655.6v-7.2h1.2
				l0.3,2.1v5.2H-856.8z M-855.4-2658.7l-0.4-2.3h0.6c0.1-1.3,0.7-2,2-2c0.7,0,1.3,0.2,1.6,0.6s0.5,1.1,0.5,2.1h-1.4
				c0-0.5-0.1-0.9-0.2-1.1c-0.2-0.2-0.4-0.3-0.8-0.3c-0.6,0-1.1,0.3-1.4,0.8C-855.2-2660.5-855.4-2659.7-855.4-2658.7z"/>
			<path class="st3" d="M-847.5-2655.6l-2.9-7.2h1.5l2.4,6.2h0.2v1.1H-847.5z M-850.3-2652.3l-0.1-1.3l1.1-0.1
				c0.5-0.1,0.9-0.2,1.2-0.4c0.3-0.2,0.6-0.5,0.9-0.9c0.2-0.4,0.5-0.9,0.6-1.5l1.8-6.3h1.5l-2.1,6.6c-0.3,0.9-0.6,1.6-0.9,2.1
				c-0.3,0.5-0.7,0.9-1.2,1.2c-0.5,0.3-1,0.4-1.7,0.5L-850.3-2652.3z"/>
			<path class="st3" d="M-836.9-2654.2c-0.7,0-1.3-0.2-1.7-0.7c-0.4-0.4-0.6-1.1-0.6-1.9c0-0.4,0-0.8,0.1-1.1s0.1-0.8,0.1-1.2
				c0-0.3-0.1-0.5-0.3-0.6c-0.2-0.1-0.5-0.2-0.8-0.3c-0.3-0.1-0.5-0.1-0.8-0.1v-1.1c0.2,0,0.3,0,0.6-0.1c0.2,0,0.4-0.1,0.6-0.2
				c0.2-0.1,0.4-0.2,0.5-0.3c0.1-0.1,0.2-0.3,0.2-0.4c0-0.4,0-0.8-0.1-1.2s-0.1-0.7-0.1-1.1c0-0.8,0.2-1.4,0.6-1.8
				c0.4-0.4,1-0.6,1.7-0.6c0.3,0,0.5,0,0.7,0c0.2,0,0.3,0.1,0.5,0.1l-0.2,1.2c-0.2,0-0.3,0-0.5-0.1c-0.1,0-0.3,0-0.4,0
				c-0.3,0-0.6,0.1-0.7,0.3c-0.2,0.2-0.3,0.5-0.3,0.9c0,0.4,0.1,0.8,0.2,1.1s0.2,0.7,0.2,1.1c0,0.5-0.2,0.8-0.5,1
				c-0.3,0.2-0.8,0.4-1.3,0.4v0.2c0.6,0,1,0.1,1.3,0.4c0.3,0.3,0.5,0.6,0.5,1c0,0.4-0.1,0.8-0.2,1.2s-0.2,0.7-0.2,1.1
				c0,0.4,0.1,0.7,0.3,1c0.2,0.2,0.4,0.3,0.7,0.3c0.1,0,0.3,0,0.4,0c0.1,0,0.3,0,0.5,0l0.2,1.2c-0.2,0-0.3,0.1-0.5,0.1
				C-836.4-2654.2-836.7-2654.2-836.9-2654.2z"/>
			<path class="st3" d="M-833.7-2659.8v-1.3h6.8v1.3H-833.7z"/>
			<path class="st3" d="M-823.6-2654.2c-0.3,0-0.5,0-0.7,0c-0.2,0-0.3-0.1-0.5-0.1l0.2-1.2c0.2,0,0.3,0,0.5,0c0.1,0,0.3,0,0.4,0
				c0.3,0,0.6-0.1,0.7-0.3c0.2-0.2,0.3-0.5,0.3-1c0-0.4-0.1-0.7-0.2-1.1s-0.2-0.7-0.2-1.2c0-0.4,0.2-0.8,0.5-1
				c0.3-0.3,0.8-0.4,1.3-0.4v-0.2c-0.6,0-1-0.1-1.3-0.4c-0.3-0.2-0.5-0.6-0.5-1c0-0.4,0.1-0.8,0.2-1.1s0.2-0.7,0.2-1.1
				c0-0.4-0.1-0.7-0.3-0.9c-0.2-0.2-0.4-0.3-0.7-0.3c-0.1,0-0.3,0-0.4,0c-0.1,0-0.3,0-0.5,0.1l-0.2-1.2c0.2,0,0.3-0.1,0.5-0.1
				c0.2,0,0.4,0,0.7,0c0.7,0,1.3,0.2,1.7,0.6c0.4,0.4,0.6,1,0.6,1.8c0,0.4,0,0.8-0.1,1.1s-0.1,0.8-0.1,1.2c0,0.2,0.1,0.3,0.2,0.4
				c0.1,0.1,0.3,0.2,0.5,0.3c0.2,0.1,0.4,0.1,0.6,0.2c0.2,0,0.4,0.1,0.5,0.1v1.1c-0.2,0-0.5,0-0.8,0.1c-0.3,0.1-0.5,0.2-0.8,0.3
				c-0.2,0.1-0.3,0.3-0.3,0.6c0,0.4,0,0.8,0.1,1.2s0.1,0.8,0.1,1.1c0,0.8-0.2,1.4-0.6,1.9C-822.3-2654.4-822.9-2654.2-823.6-2654.2z
				"/>
		</g>
	</g>
</g>
<g transform="translate(1620,2750.995396930375)">
	<circle class="st1" cx="-802" cy="-2660.5" r="10"/>
	<g>
		<g class="st2">
			<path class="st3" d="M-784.8-2664v-1.3h5.9v1.3H-784.8z M-784.8-2655.6v-1.3h5.9v1.3H-784.8z M-782.6-2655.6v-9.7h1.4v9.7H-782.6
				z"/>
			<path class="st3" d="M-776.6-2655.6v-7.2h1.3l0.1,1.5v5.7H-776.6z M-772.2-2655.6v-4.7c0-0.4-0.1-0.8-0.3-1s-0.5-0.4-1-0.4
				c-1.1,0-1.7,0.7-1.7,2l-0.4-1.9h0.6c0-0.5,0.2-0.9,0.5-1.1c0.3-0.2,0.8-0.4,1.4-0.4c0.8,0,1.4,0.2,1.8,0.7s0.6,1.1,0.6,2v4.7
				H-772.2z"/>
			<path class="st3" d="M-769.2-2661.7v-1.2h6.6v1.2H-769.2z M-767.3-2659v-6h1.4v6H-767.3z M-764.2-2655.5c-1.1,0-1.9-0.2-2.4-0.7
				c-0.5-0.5-0.7-1.2-0.7-2.2v-1.2h1.4v1.2c0,0.6,0.1,1,0.4,1.3c0.3,0.3,0.7,0.4,1.4,0.4c0.2,0,0.5,0,0.7,0c0.3,0,0.5-0.1,0.9-0.1
				l0.2,1.3c-0.3,0.1-0.6,0.1-0.9,0.1C-763.6-2655.5-763.9-2655.5-764.2-2655.5z"/>
			<path class="st3" d="M-755.7-2654.2c-0.7,0-1.3-0.2-1.7-0.7c-0.4-0.4-0.6-1.1-0.6-1.9c0-0.4,0-0.8,0.1-1.1s0.1-0.8,0.1-1.2
				c0-0.3-0.1-0.5-0.3-0.6c-0.2-0.1-0.5-0.2-0.8-0.3c-0.3-0.1-0.5-0.1-0.8-0.1v-1.1c0.2,0,0.3,0,0.6-0.1c0.2,0,0.4-0.1,0.6-0.2
				c0.2-0.1,0.4-0.2,0.5-0.3c0.1-0.1,0.2-0.3,0.2-0.4c0-0.4,0-0.8-0.1-1.2s-0.1-0.7-0.1-1.1c0-0.8,0.2-1.4,0.6-1.8
				c0.4-0.4,1-0.6,1.7-0.6c0.3,0,0.5,0,0.7,0c0.2,0,0.3,0.1,0.5,0.1l-0.2,1.2c-0.2,0-0.3,0-0.5-0.1c-0.1,0-0.3,0-0.4,0
				c-0.3,0-0.6,0.1-0.7,0.3c-0.2,0.2-0.3,0.5-0.3,0.9c0,0.4,0.1,0.8,0.2,1.1s0.2,0.7,0.2,1.1c0,0.5-0.2,0.8-0.5,1
				c-0.3,0.2-0.8,0.4-1.3,0.4v0.2c0.6,0,1,0.1,1.3,0.4c0.3,0.3,0.5,0.6,0.5,1c0,0.4-0.1,0.8-0.2,1.2s-0.2,0.7-0.2,1.1
				c0,0.4,0.1,0.7,0.3,1c0.2,0.2,0.4,0.3,0.7,0.3c0.1,0,0.3,0,0.4,0c0.1,0,0.3,0,0.5,0l0.2,1.2c-0.2,0-0.3,0.1-0.5,0.1
				C-755.2-2654.2-755.4-2654.2-755.7-2654.2z"/>
			<path class="st3" d="M-750.6-2660.1l-0.2-0.9c0.7-0.1,1.3-0.2,1.7-0.4s0.8-0.4,1-0.7c0.2-0.3,0.3-0.6,0.3-0.9
				c0-0.4-0.1-0.7-0.4-0.9c-0.3-0.2-0.6-0.3-1.1-0.3c-0.3,0-0.7,0.1-1.1,0.3c-0.4,0.2-0.8,0.4-1.1,0.8l-0.9-0.9
				c0.4-0.5,0.9-0.8,1.5-1c0.6-0.2,1.2-0.3,1.8-0.3c0.9,0,1.6,0.2,2.1,0.6c0.5,0.4,0.7,0.9,0.7,1.6c0,0.6-0.2,1.1-0.6,1.5
				c-0.4,0.4-0.9,0.7-1.5,0.9v0.8H-750.6z M-749.6-2655.5c-0.5,0-1,0-1.4-0.1c-0.4-0.1-0.8-0.1-1.1-0.2l0.2-1.3
				c0.3,0.1,0.6,0.2,0.9,0.2c0.3,0.1,0.8,0.1,1.3,0.1c0.7,0,1.2-0.1,1.6-0.4s0.6-0.7,0.6-1.2c0-0.4-0.1-0.7-0.3-0.9s-0.5-0.4-1-0.6
				c-0.4-0.1-0.9-0.2-1.5-0.2h-0.2l-0.2-0.9l2.1,0.2c0.8,0.1,1.4,0.3,1.9,0.8c0.5,0.4,0.7,1,0.7,1.8c0,0.9-0.3,1.5-0.9,2
				C-747.6-2655.7-748.5-2655.5-749.6-2655.5z"/>
			<path class="st3" d="M-742.4-2654.2c-0.3,0-0.5,0-0.7,0c-0.2,0-0.3-0.1-0.5-0.1l0.2-1.2c0.2,0,0.3,0,0.5,0c0.1,0,0.3,0,0.4,0
				c0.3,0,0.6-0.1,0.7-0.3c0.2-0.2,0.3-0.5,0.3-1c0-0.4-0.1-0.7-0.2-1.1s-0.2-0.7-0.2-1.2c0-0.4,0.2-0.8,0.5-1
				c0.3-0.3,0.8-0.4,1.3-0.4v-0.2c-0.6,0-1-0.1-1.3-0.4c-0.3-0.2-0.5-0.6-0.5-1c0-0.4,0.1-0.8,0.2-1.1s0.2-0.7,0.2-1.1
				c0-0.4-0.1-0.7-0.3-0.9c-0.2-0.2-0.4-0.3-0.7-0.3c-0.1,0-0.3,0-0.4,0c-0.1,0-0.3,0-0.5,0.1l-0.2-1.2c0.2,0,0.3-0.1,0.5-0.1
				c0.2,0,0.4,0,0.7,0c0.7,0,1.3,0.2,1.7,0.6c0.4,0.4,0.6,1,0.6,1.8c0,0.4,0,0.8-0.1,1.1s-0.1,0.8-0.1,1.2c0,0.2,0.1,0.3,0.2,0.4
				c0.1,0.1,0.3,0.2,0.5,0.3c0.2,0.1,0.4,0.1,0.6,0.2c0.2,0,0.4,0.1,0.5,0.1v1.1c-0.2,0-0.5,0-0.8,0.1c-0.3,0.1-0.5,0.2-0.8,0.3
				c-0.2,0.1-0.3,0.3-0.3,0.6c0,0.4,0,0.8,0.1,1.2s0.1,0.8,0.1,1.1c0,0.8-0.2,1.4-0.6,1.9C-741.1-2654.4-741.6-2654.2-742.4-2654.2z
				"/>
		</g>
	</g>
</g>
<g transform="translate(1440,2777.3205546549043)">
	<circle class="st1" cx="-802" cy="-2660.5" r="10"/>
	<g>
		<g class="st2">
			<path class="st3" d="M-898.9-2655.6v-9.7h1.4v9.7H-898.9z M-898.1-2660.4v-0.7h2.8v0.7H-898.1z M-897.6-2660.8v-0.6h1.6
				c0.5,0,0.9-0.1,1.2-0.3c0.3-0.2,0.4-0.6,0.4-1c0-0.4-0.1-0.7-0.4-1s-0.7-0.3-1.3-0.3h-1.5l-0.2-1.3h1.8c1,0,1.7,0.2,2.3,0.6
				c0.5,0.4,0.8,1,0.8,1.8c0,0.7-0.3,1.2-0.8,1.5c-0.5,0.4-1.2,0.5-2.2,0.5H-897.6z M-897.6-2655.6v-1.3h2.1c0.6,0,1.1-0.1,1.4-0.4
				c0.3-0.3,0.5-0.7,0.5-1.2c0-0.5-0.2-0.9-0.5-1.2c-0.3-0.3-0.8-0.4-1.5-0.4h-1.9l-0.2-0.6h2.4c1,0,1.7,0.2,2.3,0.6s0.8,1,0.8,1.8
				c0,0.8-0.3,1.5-0.8,2s-1.2,0.7-2.2,0.7H-897.6z"/>
			<path class="st3" d="M-890.7-2655.6v-1.2h2.9v1.2H-890.7z M-890.3-2661.7v-1.2h3.8v1.2H-890.3z M-887.3-2664
				c-0.3,0-0.5-0.1-0.7-0.3c-0.2-0.2-0.3-0.4-0.3-0.7c0-0.3,0.1-0.5,0.3-0.7s0.4-0.3,0.7-0.3c0.3,0,0.5,0.1,0.7,0.3s0.3,0.4,0.3,0.7
				c0,0.3-0.1,0.5-0.3,0.7C-886.8-2664.1-887-2664-887.3-2664z M-887.9-2655.6v-6.8h1.4v6.8H-887.9z M-886.6-2655.6v-1.2h2.4v1.2
				H-886.6z"/>
			<path class="st3" d="M-882.4-2655.6v-7.2h1.3l0.1,1.5v5.7H-882.4z M-878-2655.6v-4.7c0-0.4-0.1-0.8-0.3-1s-0.5-0.4-1-0.4
				c-1.1,0-1.7,0.7-1.7,2l-0.4-1.9h0.6c0-0.5,0.2-0.9,0.5-1.1c0.3-0.2,0.8-0.4,1.4-0.4c0.8,0,1.4,0.2,1.8,0.7s0.6,1.1,0.6,2v4.7
				H-878z"/>
			<path class="st3" d="M-872.4-2655.5c-0.8,0-1.3-0.2-1.8-0.5s-0.6-0.9-0.6-1.5c0-0.8,0.3-1.4,0.9-1.8s1.4-0.6,2.4-0.6
				c0.4,0,0.8,0,1.2,0.1c0.3,0.1,0.6,0.1,0.9,0.2l-0.3,1c-0.3-0.1-0.6-0.1-0.9-0.1c-0.3,0-0.6,0-0.9,0c-1.3,0-1.9,0.4-1.9,1.1
				c0,0.3,0.1,0.6,0.3,0.8s0.5,0.3,0.9,0.3c0.5,0,0.8-0.1,1.1-0.2s0.5-0.4,0.7-0.6s0.2-0.5,0.2-0.7v-0.8l0.4,1.9h-0.6l0.2-0.2
				c0,0.4-0.1,0.8-0.3,1c-0.2,0.3-0.5,0.5-0.8,0.6C-871.5-2655.6-871.9-2655.5-872.4-2655.5z M-869.8-2655.6l-0.1-2.1l-0.2-0.6v-1.9
				c0-0.5-0.2-0.8-0.5-1.1c-0.3-0.2-0.8-0.3-1.5-0.4l-1.7,0l0.1-1.3l1.5,0c1.2,0,2.1,0.3,2.7,0.8c0.6,0.5,0.9,1.2,0.9,2.2v3l1.2,0.2
				v1.2L-869.8-2655.6z"/>
			<path class="st3" d="M-866.6-2655.6v-1.2h4.8v1.2H-866.6z M-866.4-2661.7v-1.2h2.4l0.1,1.2H-866.4z M-865-2655.6v-7.2h1.2
				l0.3,2.1v5.2H-865z M-863.6-2658.7l-0.4-2.3h0.6c0.1-1.3,0.7-2,2-2c0.7,0,1.3,0.2,1.6,0.6s0.5,1.1,0.5,2.1h-1.4
				c0-0.5-0.1-0.9-0.2-1.1s-0.4-0.3-0.8-0.3c-0.6,0-1.1,0.3-1.4,0.8C-863.4-2660.5-863.6-2659.7-863.6-2658.7z"/>
			<path class="st3" d="M-855.7-2655.6l-2.9-7.2h1.5l2.4,6.2h0.2v1.1H-855.7z M-858.5-2652.3l-0.1-1.3l1.1-0.1
				c0.5-0.1,0.9-0.2,1.2-0.4s0.6-0.5,0.9-0.9c0.2-0.4,0.5-0.9,0.6-1.5l1.8-6.3h1.5l-2.1,6.6c-0.3,0.9-0.6,1.6-0.9,2.1
				s-0.7,0.9-1.2,1.2s-1,0.4-1.7,0.5L-858.5-2652.3z"/>
			<path class="st3" d="M-845.1-2654.2c-0.7,0-1.3-0.2-1.7-0.7c-0.4-0.4-0.6-1.1-0.6-1.9c0-0.4,0-0.8,0.1-1.1s0.1-0.8,0.1-1.2
				c0-0.3-0.1-0.5-0.3-0.6c-0.2-0.1-0.5-0.2-0.8-0.3c-0.3-0.1-0.5-0.1-0.8-0.1v-1.1c0.2,0,0.3,0,0.6-0.1c0.2,0,0.4-0.1,0.6-0.2
				c0.2-0.1,0.4-0.2,0.5-0.3s0.2-0.3,0.2-0.4c0-0.4,0-0.8-0.1-1.2s-0.1-0.7-0.1-1.1c0-0.8,0.2-1.4,0.6-1.8c0.4-0.4,1-0.6,1.7-0.6
				c0.3,0,0.5,0,0.7,0c0.2,0,0.3,0.1,0.5,0.1l-0.2,1.2c-0.2,0-0.3,0-0.5-0.1c-0.1,0-0.3,0-0.4,0c-0.3,0-0.6,0.1-0.7,0.3
				s-0.3,0.5-0.3,0.9c0,0.4,0.1,0.8,0.2,1.1s0.2,0.7,0.2,1.1c0,0.5-0.2,0.8-0.5,1c-0.3,0.2-0.8,0.4-1.3,0.4v0.2c0.6,0,1,0.1,1.3,0.4
				c0.3,0.3,0.5,0.6,0.5,1c0,0.4-0.1,0.8-0.2,1.2s-0.2,0.7-0.2,1.1c0,0.4,0.1,0.7,0.3,1c0.2,0.2,0.4,0.3,0.7,0.3c0.1,0,0.3,0,0.4,0
				s0.3,0,0.5,0l0.2,1.2c-0.2,0-0.3,0.1-0.5,0.1C-844.6-2654.2-844.9-2654.2-845.1-2654.2z"/>
			<path class="st3" d="M-841.6-2657.1v-1.5l4.8-1.8v-0.1l-4.8-1.8v-1.5l6.5,2.7v1.4L-841.6-2657.1z"/>
			<path class="st3" d="M-833.7-2661.5v-1.3h6.8v1.3H-833.7z M-833.7-2658.1v-1.3h6.8v1.3H-833.7z"/>
			<path class="st3" d="M-823.6-2654.2c-0.3,0-0.5,0-0.7,0c-0.2,0-0.3-0.1-0.5-0.1l0.2-1.2c0.2,0,0.3,0,0.5,0c0.1,0,0.3,0,0.4,0
				c0.3,0,0.6-0.1,0.7-0.3c0.2-0.2,0.3-0.5,0.3-1c0-0.4-0.1-0.7-0.2-1.1s-0.2-0.7-0.2-1.2c0-0.4,0.2-0.8,0.5-1
				c0.3-0.3,0.8-0.4,1.3-0.4v-0.2c-0.6,0-1-0.1-1.3-0.4c-0.3-0.2-0.5-0.6-0.5-1c0-0.4,0.1-0.8,0.2-1.1s0.2-0.7,0.2-1.1
				c0-0.4-0.1-0.7-0.3-0.9c-0.2-0.2-0.4-0.3-0.7-0.3c-0.1,0-0.3,0-0.4,0c-0.1,0-0.3,0-0.5,0.1l-0.2-1.2c0.2,0,0.3-0.1,0.5-0.1
				c0.2,0,0.4,0,0.7,0c0.7,0,1.3,0.2,1.7,0.6c0.4,0.4,0.6,1,0.6,1.8c0,0.4,0,0.8-0.1,1.1s-0.1,0.8-0.1,1.2c0,0.2,0.1,0.3,0.2,0.4
				c0.1,0.1,0.3,0.2,0.5,0.3c0.2,0.1,0.4,0.1,0.6,0.2c0.2,0,0.4,0.1,0.5,0.1v1.1c-0.2,0-0.5,0-0.8,0.1c-0.3,0.1-0.5,0.2-0.8,0.3
				c-0.2,0.1-0.3,0.3-0.3,0.6c0,0.4,0,0.8,0.1,1.2s0.1,0.8,0.1,1.1c0,0.8-0.2,1.4-0.6,1.9C-822.3-2654.4-822.9-2654.2-823.6-2654.2z
				"/>
		</g>
	</g>
</g>
<g transform="translate(1440,2724.670004725594)">
	<circle class="st1" cx="-802" cy="-2660.5" r="10"/>
	<g>
		<g class="st2">
			<path class="st3" d="M-784.8-2664v-1.3h5.9v1.3H-784.8z M-784.8-2655.6v-1.3h5.9v1.3H-784.8z M-782.6-2655.6v-9.7h1.4v9.7H-782.6
				z"/>
			<path class="st3" d="M-776.6-2655.6v-7.2h1.3l0.1,1.5v5.7H-776.6z M-772.2-2655.6v-4.7c0-0.4-0.1-0.8-0.3-1s-0.5-0.4-1-0.4
				c-1.1,0-1.7,0.7-1.7,2l-0.4-1.9h0.6c0-0.5,0.2-0.9,0.5-1.1c0.3-0.2,0.8-0.4,1.4-0.4c0.8,0,1.4,0.2,1.8,0.7s0.6,1.1,0.6,2v4.7
				H-772.2z"/>
			<path class="st3" d="M-769.2-2661.7v-1.2h6.6v1.2H-769.2z M-767.3-2659v-6h1.4v6H-767.3z M-764.2-2655.5c-1.1,0-1.9-0.2-2.4-0.7
				c-0.5-0.5-0.7-1.2-0.7-2.2v-1.2h1.4v1.2c0,0.6,0.1,1,0.4,1.3c0.3,0.3,0.7,0.4,1.4,0.4c0.2,0,0.5,0,0.7,0c0.3,0,0.5-0.1,0.9-0.1
				l0.2,1.3c-0.3,0.1-0.6,0.1-0.9,0.1C-763.6-2655.5-763.9-2655.5-764.2-2655.5z"/>
			<path class="st3" d="M-755.7-2654.2c-0.7,0-1.3-0.2-1.7-0.7c-0.4-0.4-0.6-1.1-0.6-1.9c0-0.4,0-0.8,0.1-1.1s0.1-0.8,0.1-1.2
				c0-0.3-0.1-0.5-0.3-0.6c-0.2-0.1-0.5-0.2-0.8-0.3c-0.3-0.1-0.5-0.1-0.8-0.1v-1.1c0.2,0,0.3,0,0.6-0.1c0.2,0,0.4-0.1,0.6-0.2
				c0.2-0.1,0.4-0.2,0.5-0.3c0.1-0.1,0.2-0.3,0.2-0.4c0-0.4,0-0.8-0.1-1.2s-0.1-0.7-0.1-1.1c0-0.8,0.2-1.4,0.6-1.8
				c0.4-0.4,1-0.6,1.7-0.6c0.3,0,0.5,0,0.7,0c0.2,0,0.3,0.1,0.5,0.1l-0.2,1.2c-0.2,0-0.3,0-0.5-0.1c-0.1,0-0.3,0-0.4,0
				c-0.3,0-0.6,0.1-0.7,0.3c-0.2,0.2-0.3,0.5-0.3,0.9c0,0.4,0.1,0.8,0.2,1.1s0.2,0.7,0.2,1.1c0,0.5-0.2,0.8-0.5,1
				c-0.3,0.2-0.8,0.4-1.3,0.4v0.2c0.6,0,1,0.1,1.3,0.4c0.3,0.3,0.5,0.6,0.5,1c0,0.4-0.1,0.8-0.2,1.2s-0.2,0.7-0.2,1.1
				c0,0.4,0.1,0.7,0.3,1c0.2,0.2,0.4,0.3,0.7,0.3c0.1,0,0.3,0,0.4,0c0.1,0,0.3,0,0.5,0l0.2,1.2c-0.2,0-0.3,0.1-0.5,0.1
				C-755.2-2654.2-755.4-2654.2-755.7-2654.2z"/>
			<path class="st3" d="M-752.7-2657.8l1-1.2h4v1.2H-752.7z M-752.7-2657.8l1.4-7h1.4l-1.4,7H-752.7z M-747.8-2655.6v-9.7h1.4v9.7
				H-747.8z M-746.6-2657.8v-1.2h1.1v1.2H-746.6z"/>
			<path class="st3" d="M-742.4-2654.2c-0.3,0-0.5,0-0.7,0c-0.2,0-0.3-0.1-0.5-0.1l0.2-1.2c0.2,0,0.3,0,0.5,0c0.1,0,0.3,0,0.4,0
				c0.3,0,0.6-0.1,0.7-0.3c0.2-0.2,0.3-0.5,0.3-1c0-0.4-0.1-0.7-0.2-1.1s-0.2-0.7-0.2-1.2c0-0.4,0.2-0.8,0.5-1
				c0.3-0.3,0.8-0.4,1.3-0.4v-0.2c-0.6,0-1-0.1-1.3-0.4c-0.3-0.2-0.5-0.6-0.5-1c0-0.4,0.1-0.8,0.2-1.1s0.2-0.7,0.2-1.1
				c0-0.4-0.1-0.7-0.3-0.9c-0.2-0.2-0.4-0.3-0.7-0.3c-0.1,0-0.3,0-0.4,0c-0.1,0-0.3,0-0.5,0.1l-0.2-1.2c0.2,0,0.3-0.1,0.5-0.1
				c0.2,0,0.4,0,0.7,0c0.7,0,1.3,0.2,1.7,0.6c0.4,0.4,0.6,1,0.6,1.8c0,0.4,0,0.8-0.1,1.1s-0.1,0.8-0.1,1.2c0,0.2,0.1,0.3,0.2,0.4
				c0.1,0.1,0.3,0.2,0.5,0.3c0.2,0.1,0.4,0.1,0.6,0.2c0.2,0,0.4,0.1,0.5,0.1v1.1c-0.2,0-0.5,0-0.8,0.1c-0.3,0.1-0.5,0.2-0.8,0.3
				c-0.2,0.1-0.3,0.3-0.3,0.6c0,0.4,0,0.8,0.1,1.2s0.1,0.8,0.1,1.1c0,0.8-0.2,1.4-0.6,1.9C-741.1-2654.4-741.6-2654.2-742.4-2654.2z
				"/>
		</g>
	</g>
</g>
<g transform="translate(1260,2750.995396930375)">
	<circle class="st1" cx="-802" cy="-2660.5" r="10"/>
	<g>
		<g class="st2">
			<path class="st3" d="M-898.9-2655.6v-9.7h1.4v9.7H-898.9z M-898.1-2660.4v-0.7h2.8v0.7H-898.1z M-897.6-2660.8v-0.6h1.6
				c0.5,0,0.9-0.1,1.2-0.3c0.3-0.2,0.4-0.6,0.4-1c0-0.4-0.1-0.7-0.4-1s-0.7-0.3-1.3-0.3h-1.5l-0.2-1.3h1.8c1,0,1.7,0.2,2.3,0.6
				c0.5,0.4,0.8,1,0.8,1.8c0,0.7-0.3,1.2-0.8,1.5c-0.5,0.4-1.2,0.5-2.2,0.5H-897.6z M-897.6-2655.6v-1.3h2.1c0.6,0,1.1-0.1,1.4-0.4
				c0.3-0.3,0.5-0.7,0.5-1.2c0-0.5-0.2-0.9-0.5-1.2c-0.3-0.3-0.8-0.4-1.5-0.4h-1.9l-0.2-0.6h2.4c1,0,1.7,0.2,2.3,0.6s0.8,1,0.8,1.8
				c0,0.8-0.3,1.5-0.8,2s-1.2,0.7-2.2,0.7H-897.6z"/>
			<path class="st3" d="M-890.7-2655.6v-1.2h2.9v1.2H-890.7z M-890.3-2661.7v-1.2h3.8v1.2H-890.3z M-887.3-2664
				c-0.3,0-0.5-0.1-0.7-0.3c-0.2-0.2-0.3-0.4-0.3-0.7c0-0.3,0.1-0.5,0.3-0.7s0.4-0.3,0.7-0.3c0.3,0,0.5,0.1,0.7,0.3s0.3,0.4,0.3,0.7
				c0,0.3-0.1,0.5-0.3,0.7C-886.8-2664.1-887-2664-887.3-2664z M-887.9-2655.6v-6.8h1.4v6.8H-887.9z M-886.6-2655.6v-1.2h2.4v1.2
				H-886.6z"/>
			<path class="st3" d="M-882.4-2655.6v-7.2h1.3l0.1,1.5v5.7H-882.4z M-878-2655.6v-4.7c0-0.4-0.1-0.8-0.3-1s-0.5-0.4-1-0.4
				c-1.1,0-1.7,0.7-1.7,2l-0.4-1.9h0.6c0-0.5,0.2-0.9,0.5-1.1c0.3-0.2,0.8-0.4,1.4-0.4c0.8,0,1.4,0.2,1.8,0.7s0.6,1.1,0.6,2v4.7
				H-878z"/>
			<path class="st3" d="M-872.4-2655.5c-0.8,0-1.3-0.2-1.8-0.5s-0.6-0.9-0.6-1.5c0-0.8,0.3-1.4,0.9-1.8s1.4-0.6,2.4-0.6
				c0.4,0,0.8,0,1.2,0.1c0.3,0.1,0.6,0.1,0.9,0.2l-0.3,1c-0.3-0.1-0.6-0.1-0.9-0.1c-0.3,0-0.6,0-0.9,0c-1.3,0-1.9,0.4-1.9,1.1
				c0,0.3,0.1,0.6,0.3,0.8s0.5,0.3,0.9,0.3c0.5,0,0.8-0.1,1.1-0.2s0.5-0.4,0.7-0.6s0.2-0.5,0.2-0.7v-0.8l0.4,1.9h-0.6l0.2-0.2
				c0,0.4-0.1,0.8-0.3,1c-0.2,0.3-0.5,0.5-0.8,0.6C-871.5-2655.6-871.9-2655.5-872.4-2655.5z M-869.8-2655.6l-0.1-2.1l-0.2-0.6v-1.9
				c0-0.5-0.2-0.8-0.5-1.1c-0.3-0.2-0.8-0.3-1.5-0.4l-1.7,0l0.1-1.3l1.5,0c1.2,0,2.1,0.3,2.7,0.8c0.6,0.5,0.9,1.2,0.9,2.2v3l1.2,0.2
				v1.2L-869.8-2655.6z"/>
			<path class="st3" d="M-866.6-2655.6v-1.2h4.8v1.2H-866.6z M-866.4-2661.7v-1.2h2.4l0.1,1.2H-866.4z M-865-2655.6v-7.2h1.2
				l0.3,2.1v5.2H-865z M-863.6-2658.7l-0.4-2.3h0.6c0.1-1.3,0.7-2,2-2c0.7,0,1.3,0.2,1.6,0.6s0.5,1.1,0.5,2.1h-1.4
				c0-0.5-0.1-0.9-0.2-1.1s-0.4-0.3-0.8-0.3c-0.6,0-1.1,0.3-1.4,0.8C-863.4-2660.5-863.6-2659.7-863.6-2658.7z"/>
			<path class="st3" d="M-855.7-2655.6l-2.9-7.2h1.5l2.4,6.2h0.2v1.1H-855.7z M-858.5-2652.3l-0.1-1.3l1.1-0.1
				c0.5-0.1,0.9-0.2,1.2-0.4s0.6-0.5,0.9-0.9c0.2-0.4,0.5-0.9,0.6-1.5l1.8-6.3h1.5l-2.1,6.6c-0.3,0.9-0.6,1.6-0.9,2.1
				s-0.7,0.9-1.2,1.2s-1,0.4-1.7,0.5L-858.5-2652.3z"/>
			<path class="st3" d="M-845.1-2654.2c-0.7,0-1.3-0.2-1.7-0.7c-0.4-0.4-0.6-1.1-0.6-1.9c0-0.4,0-0.8,0.1-1.1s0.1-0.8,0.1-1.2
				c0-0.3-0.1-0.5-0.3-0.6c-0.2-0.1-0.5-0.2-0.8-0.3c-0.3-0.1-0.5-0.1-0.8-0.1v-1.1c0.2,0,0.3,0,0.6-0.1c0.2,0,0.4-0.1,0.6-0.2
				c0.2-0.1,0.4-0.2,0.5-0.3s0.2-0.3,0.2-0.4c0-0.4,0-0.8-0.1-1.2s-0.1-0.7-0.1-1.1c0-0.8,0.2-1.4,0.6-1.8c0.4-0.4,1-0.6,1.7-0.6
				c0.3,0,0.5,0,0.7,0c0.2,0,0.3,0.1,0.5,0.1l-0.2,1.2c-0.2,0-0.3,0-0.5-0.1c-0.1,0-0.3,0-0.4,0c-0.3,0-0.6,0.1-0.7,0.3
				s-0.3,0.5-0.3,0.9c0,0.4,0.1,0.8,0.2,1.1s0.2,0.7,0.2,1.1c0,0.5-0.2,0.8-0.5,1c-0.3,0.2-0.8,0.4-1.3,0.4v0.2c0.6,0,1,0.1,1.3,0.4
				c0.3,0.3,0.5,0.6,0.5,1c0,0.4-0.1,0.8-0.2,1.2s-0.2,0.7-0.2,1.1c0,0.4,0.1,0.7,0.3,1c0.2,0.2,0.4,0.3,0.7,0.3c0.1,0,0.3,0,0.4,0
				s0.3,0,0.5,0l0.2,1.2c-0.2,0-0.3,0.1-0.5,0.1C-844.6-2654.2-844.9-2654.2-845.1-2654.2z"/>
			<path class="st3" d="M-841.9-2661.5v-1.3h6.8v1.3H-841.9z M-841.9-2658.1v-1.3h6.8v1.3H-841.9z"/>
			<path class="st3" d="M-833.7-2661.5v-1.3h6.8v1.3H-833.7z M-833.7-2658.1v-1.3h6.8v1.3H-833.7z"/>
			<path class="st3" d="M-823.6-2654.2c-0.3,0-0.5,0-0.7,0c-0.2,0-0.3-0.1-0.5-0.1l0.2-1.2c0.2,0,0.3,0,0.5,0s0.3,0,0.4,0
				c0.3,0,0.6-0.1,0.7-0.3c0.2-0.2,0.3-0.5,0.3-1c0-0.4-0.1-0.7-0.2-1.1s-0.2-0.7-0.2-1.2c0-0.4,0.2-0.8,0.5-1
				c0.3-0.3,0.8-0.4,1.3-0.4v-0.2c-0.6,0-1-0.1-1.3-0.4c-0.3-0.2-0.5-0.6-0.5-1c0-0.4,0.1-0.8,0.2-1.1s0.2-0.7,0.2-1.1
				c0-0.4-0.1-0.7-0.3-0.9s-0.4-0.3-0.7-0.3c-0.1,0-0.3,0-0.4,0c-0.1,0-0.3,0-0.5,0.1l-0.2-1.2c0.2,0,0.3-0.1,0.5-0.1
				c0.2,0,0.4,0,0.7,0c0.7,0,1.3,0.2,1.7,0.6c0.4,0.4,0.6,1,0.6,1.8c0,0.4,0,0.8-0.1,1.1s-0.1,0.8-0.1,1.2c0,0.2,0.1,0.3,0.2,0.4
				s0.3,0.2,0.5,0.3c0.2,0.1,0.4,0.1,0.6,0.2c0.2,0,0.4,0.1,0.5,0.1v1.1c-0.2,0-0.5,0-0.8,0.1c-0.3,0.1-0.5,0.2-0.8,0.3
				c-0.2,0.1-0.3,0.3-0.3,0.6c0,0.4,0,0.8,0.1,1.2s0.1,0.8,0.1,1.1c0,0.8-0.2,1.4-0.6,1.9C-822.3-2654.4-822.9-2654.2-823.6-2654.2z
				"/>
		</g>
	</g>
</g>
<g transform="translate(1260,2698.344612520813)">
	<circle class="st1" cx="-802" cy="-2660.5" r="10"/>
	<g>
		<g class="st2">
			<path class="st3" d="M-784.8-2664v-1.3h5.9v1.3H-784.8z M-784.8-2655.6v-1.3h5.9v1.3H-784.8z M-782.6-2655.6v-9.7h1.4v9.7H-782.6
				z"/>
			<path class="st3" d="M-776.6-2655.6v-7.2h1.3l0.1,1.5v5.7H-776.6z M-772.2-2655.6v-4.7c0-0.4-0.1-0.8-0.3-1s-0.5-0.4-1-0.4
				c-1.1,0-1.7,0.7-1.7,2l-0.4-1.9h0.6c0-0.5,0.2-0.9,0.5-1.1c0.3-0.2,0.8-0.4,1.4-0.4c0.8,0,1.4,0.2,1.8,0.7s0.6,1.1,0.6,2v4.7
				H-772.2z"/>
			<path class="st3" d="M-769.2-2661.7v-1.2h6.6v1.2H-769.2z M-767.3-2659v-6h1.4v6H-767.3z M-764.2-2655.5c-1.1,0-1.9-0.2-2.4-0.7
				s-0.7-1.2-0.7-2.2v-1.2h1.4v1.2c0,0.6,0.1,1,0.4,1.3s0.7,0.4,1.4,0.4c0.2,0,0.5,0,0.7,0c0.3,0,0.5-0.1,0.9-0.1l0.2,1.3
				c-0.3,0.1-0.6,0.1-0.9,0.1S-763.9-2655.5-764.2-2655.5z"/>
			<path class="st3" d="M-755.7-2654.2c-0.7,0-1.3-0.2-1.7-0.7c-0.4-0.4-0.6-1.1-0.6-1.9c0-0.4,0-0.8,0.1-1.1s0.1-0.8,0.1-1.2
				c0-0.3-0.1-0.5-0.3-0.6c-0.2-0.1-0.5-0.2-0.8-0.3c-0.3-0.1-0.5-0.1-0.8-0.1v-1.1c0.2,0,0.3,0,0.6-0.1c0.2,0,0.4-0.1,0.6-0.2
				c0.2-0.1,0.4-0.2,0.5-0.3s0.2-0.3,0.2-0.4c0-0.4,0-0.8-0.1-1.2s-0.1-0.7-0.1-1.1c0-0.8,0.2-1.4,0.6-1.8c0.4-0.4,1-0.6,1.7-0.6
				c0.3,0,0.5,0,0.7,0c0.2,0,0.3,0.1,0.5,0.1l-0.2,1.2c-0.2,0-0.3,0-0.5-0.1c-0.1,0-0.3,0-0.4,0c-0.3,0-0.6,0.1-0.7,0.3
				s-0.3,0.5-0.3,0.9c0,0.4,0.1,0.8,0.2,1.1s0.2,0.7,0.2,1.1c0,0.5-0.2,0.8-0.5,1c-0.3,0.2-0.8,0.4-1.3,0.4v0.2c0.6,0,1,0.1,1.3,0.4
				c0.3,0.3,0.5,0.6,0.5,1c0,0.4-0.1,0.8-0.2,1.2s-0.2,0.7-0.2,1.1c0,0.4,0.1,0.7,0.3,1c0.2,0.2,0.4,0.3,0.7,0.3c0.1,0,0.3,0,0.4,0
				s0.3,0,0.5,0l0.2,1.2c-0.2,0-0.3,0.1-0.5,0.1C-755.2-2654.2-755.4-2654.2-755.7-2654.2z"/>
			<path class="st3" d="M-749.1-2655.5c-2.2,0-3.3-1.6-3.3-4.9c0-3.4,1.1-5.1,3.3-5.1s3.3,1.7,3.3,5.1
				C-745.7-2657.1-746.8-2655.5-749.1-2655.5z M-749.1-2656.7c1.2,0,1.8-1.2,1.8-3.7c0-2.5-0.6-3.8-1.8-3.8s-1.8,1.3-1.8,3.8
				C-750.9-2658-750.3-2656.7-749.1-2656.7z M-749.1-2659.4c-0.3,0-0.6-0.1-0.7-0.3c-0.2-0.2-0.3-0.4-0.3-0.7c0-0.3,0.1-0.6,0.3-0.7
				s0.4-0.3,0.7-0.3c0.3,0,0.6,0.1,0.7,0.3s0.3,0.4,0.3,0.7c0,0.3-0.1,0.6-0.3,0.7C-748.5-2659.5-748.7-2659.4-749.1-2659.4z"/>
			<path class="st3" d="M-742.4-2654.2c-0.3,0-0.5,0-0.7,0c-0.2,0-0.3-0.1-0.5-0.1l0.2-1.2c0.2,0,0.3,0,0.5,0s0.3,0,0.4,0
				c0.3,0,0.6-0.1,0.7-0.3c0.2-0.2,0.3-0.5,0.3-1c0-0.4-0.1-0.7-0.2-1.1s-0.2-0.7-0.2-1.2c0-0.4,0.2-0.8,0.5-1
				c0.3-0.3,0.8-0.4,1.3-0.4v-0.2c-0.6,0-1-0.1-1.3-0.4c-0.3-0.2-0.5-0.6-0.5-1c0-0.4,0.1-0.8,0.2-1.1s0.2-0.7,0.2-1.1
				c0-0.4-0.1-0.7-0.3-0.9s-0.4-0.3-0.7-0.3c-0.1,0-0.3,0-0.4,0c-0.1,0-0.3,0-0.5,0.1l-0.2-1.2c0.2,0,0.3-0.1,0.5-0.1
				c0.2,0,0.4,0,0.7,0c0.7,0,1.3,0.2,1.7,0.6c0.4,0.4,0.6,1,0.6,1.8c0,0.4,0,0.8-0.1,1.1s-0.1,0.8-0.1,1.2c0,0.2,0.1,0.3,0.2,0.4
				s0.3,0.2,0.5,0.3c0.2,0.1,0.4,0.1,0.6,0.2c0.2,0,0.4,0.1,0.5,0.1v1.1c-0.2,0-0.5,0-0.8,0.1c-0.3,0.1-0.5,0.2-0.8,0.3
				c-0.2,0.1-0.3,0.3-0.3,0.6c0,0.4,0,0.8,0.1,1.2s0.1,0.8,0.1,1.1c0,0.8-0.2,1.4-0.6,1.9C-741.1-2654.4-741.6-2654.2-742.4-2654.2z
				"/>
		</g>
	</g>
</g>
<g transform="translate(1080,2724.670004725594)">
	<circle class="st1" cx="-802" cy="-2660.5" r="10"/>
	<g>
		<g class="st2">
			<path class="st3" d="M-898.9-2655.6v-9.7h1.4v9.7H-898.9z M-898.1-2660.4v-0.7h2.8v0.7H-898.1z M-897.6-2660.8v-0.6h1.6
				c0.5,0,0.9-0.1,1.2-0.3c0.3-0.2,0.4-0.6,0.4-1c0-0.4-0.1-0.7-0.4-1s-0.7-0.3-1.3-0.3h-1.5l-0.2-1.3h1.8c1,0,1.7,0.2,2.3,0.6
				c0.5,0.4,0.8,1,0.8,1.8c0,0.7-0.3,1.2-0.8,1.5c-0.5,0.4-1.2,0.5-2.2,0.5H-897.6z M-897.6-2655.6v-1.3h2.1c0.6,0,1.1-0.1,1.4-0.4
				c0.3-0.3,0.5-0.7,0.5-1.2c0-0.5-0.2-0.9-0.5-1.2c-0.3-0.3-0.8-0.4-1.5-0.4h-1.9l-0.2-0.6h2.4c1,0,1.7,0.2,2.3,0.6s0.8,1,0.8,1.8
				c0,0.8-0.3,1.5-0.8,2s-1.2,0.7-2.2,0.7H-897.6z"/>
			<path class="st3" d="M-890.7-2655.6v-1.2h2.9v1.2H-890.7z M-890.3-2661.7v-1.2h3.8v1.2H-890.3z M-887.3-2664
				c-0.3,0-0.5-0.1-0.7-0.3c-0.2-0.2-0.3-0.4-0.3-0.7c0-0.3,0.1-0.5,0.3-0.7s0.4-0.3,0.7-0.3c0.3,0,0.5,0.1,0.7,0.3s0.3,0.4,0.3,0.7
				c0,0.3-0.1,0.5-0.3,0.7C-886.8-2664.1-887-2664-887.3-2664z M-887.9-2655.6v-6.8h1.4v6.8H-887.9z M-886.6-2655.6v-1.2h2.4v1.2
				H-886.6z"/>
			<path class="st3" d="M-882.4-2655.6v-7.2h1.3l0.1,1.5v5.7H-882.4z M-878-2655.6v-4.7c0-0.4-0.1-0.8-0.3-1s-0.5-0.4-1-0.4
				c-1.1,0-1.7,0.7-1.7,2l-0.4-1.9h0.6c0-0.5,0.2-0.9,0.5-1.1c0.3-0.2,0.8-0.4,1.4-0.4c0.8,0,1.4,0.2,1.8,0.7s0.6,1.1,0.6,2v4.7
				H-878z"/>
			<path class="st3" d="M-872.4-2655.5c-0.8,0-1.3-0.2-1.8-0.5s-0.6-0.9-0.6-1.5c0-0.8,0.3-1.4,0.9-1.8s1.4-0.6,2.4-0.6
				c0.4,0,0.8,0,1.2,0.1c0.3,0.1,0.6,0.1,0.9,0.2l-0.3,1c-0.3-0.1-0.6-0.1-0.9-0.1c-0.3,0-0.6,0-0.9,0c-1.3,0-1.9,0.4-1.9,1.1
				c0,0.3,0.1,0.6,0.3,0.8s0.5,0.3,0.9,0.3c0.5,0,0.8-0.1,1.1-0.2s0.5-0.4,0.7-0.6s0.2-0.5,0.2-0.7v-0.8l0.4,1.9h-0.6l0.2-0.2
				c0,0.4-0.1,0.8-0.3,1c-0.2,0.3-0.5,0.5-0.8,0.6C-871.5-2655.6-871.9-2655.5-872.4-2655.5z M-869.8-2655.6l-0.1-2.1l-0.2-0.6v-1.9
				c0-0.5-0.2-0.8-0.5-1.1c-0.3-0.2-0.8-0.3-1.5-0.4l-1.7,0l0.1-1.3l1.5,0c1.2,0,2.1,0.3,2.7,0.8c0.6,0.5,0.9,1.2,0.9,2.2v3l1.2,0.2
				v1.2L-869.8-2655.6z"/>
			<path class="st3" d="M-866.6-2655.6v-1.2h4.8v1.2H-866.6z M-866.4-2661.7v-1.2h2.4l0.1,1.2H-866.4z M-865-2655.6v-7.2h1.2
				l0.3,2.1v5.2H-865z M-863.6-2658.7l-0.4-2.3h0.6c0.1-1.3,0.7-2,2-2c0.7,0,1.3,0.2,1.6,0.6s0.5,1.1,0.5,2.1h-1.4
				c0-0.5-0.1-0.9-0.2-1.1s-0.4-0.3-0.8-0.3c-0.6,0-1.1,0.3-1.4,0.8C-863.4-2660.5-863.6-2659.7-863.6-2658.7z"/>
			<path class="st3" d="M-855.7-2655.6l-2.9-7.2h1.5l2.4,6.2h0.2v1.1H-855.7z M-858.5-2652.3l-0.1-1.3l1.1-0.1
				c0.5-0.1,0.9-0.2,1.2-0.4s0.6-0.5,0.9-0.9c0.2-0.4,0.5-0.9,0.6-1.5l1.8-6.3h1.5l-2.1,6.6c-0.3,0.9-0.6,1.6-0.9,2.1
				s-0.7,0.9-1.2,1.2s-1,0.4-1.7,0.5L-858.5-2652.3z"/>
			<path class="st3" d="M-845.1-2654.2c-0.7,0-1.3-0.2-1.7-0.7c-0.4-0.4-0.6-1.1-0.6-1.9c0-0.4,0-0.8,0.1-1.1s0.1-0.8,0.1-1.2
				c0-0.3-0.1-0.5-0.3-0.6c-0.2-0.1-0.5-0.2-0.8-0.3c-0.3-0.1-0.5-0.1-0.8-0.1v-1.1c0.2,0,0.3,0,0.6-0.1c0.2,0,0.4-0.1,0.6-0.2
				c0.2-0.1,0.4-0.2,0.5-0.3s0.2-0.3,0.2-0.4c0-0.4,0-0.8-0.1-1.2s-0.1-0.7-0.1-1.1c0-0.8,0.2-1.4,0.6-1.8c0.4-0.4,1-0.6,1.7-0.6
				c0.3,0,0.5,0,0.7,0c0.2,0,0.3,0.1,0.5,0.1l-0.2,1.2c-0.2,0-0.3,0-0.5-0.1c-0.1,0-0.3,0-0.4,0c-0.3,0-0.6,0.1-0.7,0.3
				s-0.3,0.5-0.3,0.9c0,0.4,0.1,0.8,0.2,1.1s0.2,0.7,0.2,1.1c0,0.5-0.2,0.8-0.5,1c-0.3,0.2-0.8,0.4-1.3,0.4v0.2c0.6,0,1,0.1,1.3,0.4
				c0.3,0.3,0.5,0.6,0.5,1c0,0.4-0.1,0.8-0.2,1.2s-0.2,0.7-0.2,1.1c0,0.4,0.1,0.7,0.3,1c0.2,0.2,0.4,0.3,0.7,0.3c0.1,0,0.3,0,0.4,0
				s0.3,0,0.5,0l0.2,1.2c-0.2,0-0.3,0.1-0.5,0.1C-844.6-2654.2-844.9-2654.2-845.1-2654.2z"/>
			<path class="st3" d="M-839.4-2655.5c-0.8,0-1.5-0.2-2-0.7c-0.5-0.5-0.8-1.1-0.8-1.8c0-0.7,0.2-1.3,0.7-1.8s1.1-0.8,1.9-0.9
				l0.8,0.8c-0.6,0.1-1.1,0.3-1.5,0.7c-0.3,0.3-0.5,0.7-0.5,1.1c0,0.4,0.1,0.7,0.4,0.9c0.3,0.2,0.7,0.4,1.1,0.4
				c0.9,0,1.6-0.4,2.1-1.1s0.7-1.7,0.7-3h1.3c0,1.7-0.4,3-1.1,4C-837-2656-838.1-2655.5-839.4-2655.5z M-836-2655.6l-3.5-3.9
				c-0.6-0.7-1-1.2-1.3-1.8c-0.3-0.5-0.4-1-0.4-1.5c0-0.9,0.2-1.5,0.7-2c0.5-0.5,1.2-0.7,2.1-0.7l0,1.3c-0.4,0-0.7,0.1-1,0.4
				s-0.3,0.6-0.3,1.1c0,0.3,0.1,0.7,0.3,1s0.4,0.7,0.7,1l4.5,5.1H-836z M-837.3-2663.3c0-0.3-0.1-0.5-0.3-0.7
				c-0.2-0.2-0.5-0.2-0.8-0.2l0-1.3c0.8,0,1.5,0.2,1.9,0.6s0.7,0.9,0.7,1.6H-837.3z"/>
			<path class="st3" d="M-831.2-2655.5c-0.8,0-1.5-0.2-2-0.7c-0.5-0.5-0.8-1.1-0.8-1.8c0-0.7,0.2-1.3,0.7-1.8s1.1-0.8,1.9-0.9
				l0.8,0.8c-0.6,0.1-1.1,0.3-1.5,0.7c-0.3,0.3-0.5,0.7-0.5,1.1c0,0.4,0.1,0.7,0.4,0.9c0.3,0.2,0.7,0.4,1.1,0.4
				c0.9,0,1.6-0.4,2.1-1.1s0.7-1.7,0.7-3h1.3c0,1.7-0.4,3-1.1,4C-828.8-2656-829.8-2655.5-831.2-2655.5z M-827.8-2655.6l-3.5-3.9
				c-0.6-0.7-1-1.2-1.3-1.8c-0.3-0.5-0.4-1-0.4-1.5c0-0.9,0.2-1.5,0.7-2c0.5-0.5,1.2-0.7,2.1-0.7l0,1.3c-0.4,0-0.7,0.1-1,0.4
				s-0.3,0.6-0.3,1.1c0,0.3,0.1,0.7,0.3,1s0.4,0.7,0.7,1l4.5,5.1H-827.8z M-829.1-2663.3c0-0.3-0.1-0.5-0.3-0.7
				c-0.2-0.2-0.5-0.2-0.8-0.2l0-1.3c0.8,0,1.5,0.2,1.9,0.6s0.7,0.9,0.7,1.6H-829.1z"/>
			<path class="st3" d="M-823.6-2654.2c-0.3,0-0.5,0-0.7,0c-0.2,0-0.3-0.1-0.5-0.1l0.2-1.2c0.2,0,0.3,0,0.5,0s0.3,0,0.4,0
				c0.3,0,0.6-0.1,0.7-0.3c0.2-0.2,0.3-0.5,0.3-1c0-0.4-0.1-0.7-0.2-1.1s-0.2-0.7-0.2-1.2c0-0.4,0.2-0.8,0.5-1
				c0.3-0.3,0.8-0.4,1.3-0.4v-0.2c-0.6,0-1-0.1-1.3-0.4c-0.3-0.2-0.5-0.6-0.5-1c0-0.4,0.1-0.8,0.2-1.1s0.2-0.7,0.2-1.1
				c0-0.4-0.1-0.7-0.3-0.9s-0.4-0.3-0.7-0.3c-0.1,0-0.3,0-0.4,0c-0.1,0-0.3,0-0.5,0.1l-0.2-1.2c0.2,0,0.3-0.1,0.5-0.1
				c0.2,0,0.4,0,0.7,0c0.7,0,1.3,0.2,1.7,0.6c0.4,0.4,0.6,1,0.6,1.8c0,0.4,0,0.8-0.1,1.1s-0.1,0.8-0.1,1.2c0,0.2,0.1,0.3,0.2,0.4
				s0.3,0.2,0.5,0.3c0.2,0.1,0.4,0.1,0.6,0.2c0.2,0,0.4,0.1,0.5,0.1v1.1c-0.2,0-0.5,0-0.8,0.1c-0.3,0.1-0.5,0.2-0.8,0.3
				c-0.2,0.1-0.3,0.3-0.3,0.6c0,0.4,0,0.8,0.1,1.2s0.1,0.8,0.1,1.1c0,0.8-0.2,1.4-0.6,1.9C-822.3-2654.4-822.9-2654.2-823.6-2654.2z
				"/>
		</g>
	</g>
</g>
<g transform="translate(1080,2672.0194499660975)">
	<circle class="st1" cx="-802" cy="-2660.5" r="10"/>
	<g>
		<g class="st2">
			<path class="st3" d="M-784.8-2664v-1.3h5.9v1.3H-784.8z M-784.8-2655.6v-1.3h5.9v1.3H-784.8z M-782.6-2655.6v-9.7h1.4v9.7H-782.6
				z"/>
			<path class="st3" d="M-776.6-2655.6v-7.2h1.3l0.1,1.5v5.7H-776.6z M-772.2-2655.6v-4.7c0-0.4-0.1-0.8-0.3-1s-0.5-0.4-1-0.4
				c-1.1,0-1.7,0.7-1.7,2l-0.4-1.9h0.6c0-0.5,0.2-0.9,0.5-1.1c0.3-0.2,0.8-0.4,1.4-0.4c0.8,0,1.4,0.2,1.8,0.7s0.6,1.1,0.6,2v4.7
				H-772.2z"/>
			<path class="st3" d="M-769.2-2661.7v-1.2h6.6v1.2H-769.2z M-767.3-2659v-6h1.4v6H-767.3z M-764.2-2655.5c-1.1,0-1.9-0.2-2.4-0.7
				s-0.7-1.2-0.7-2.2v-1.2h1.4v1.2c0,0.6,0.1,1,0.4,1.3s0.7,0.4,1.4,0.4c0.2,0,0.5,0,0.7,0c0.3,0,0.5-0.1,0.9-0.1l0.2,1.3
				c-0.3,0.1-0.6,0.1-0.9,0.1S-763.9-2655.5-764.2-2655.5z"/>
			<path class="st3" d="M-755.7-2654.2c-0.7,0-1.3-0.2-1.7-0.7c-0.4-0.4-0.6-1.1-0.6-1.9c0-0.4,0-0.8,0.1-1.1s0.1-0.8,0.1-1.2
				c0-0.3-0.1-0.5-0.3-0.6c-0.2-0.1-0.5-0.2-0.8-0.3c-0.3-0.1-0.5-0.1-0.8-0.1v-1.1c0.2,0,0.3,0,0.6-0.1c0.2,0,0.4-0.1,0.6-0.2
				c0.2-0.1,0.4-0.2,0.5-0.3s0.2-0.3,0.2-0.4c0-0.4,0-0.8-0.1-1.2s-0.1-0.7-0.1-1.1c0-0.8,0.2-1.4,0.6-1.8c0.4-0.4,1-0.6,1.7-0.6
				c0.3,0,0.5,0,0.7,0c0.2,0,0.3,0.1,0.5,0.1l-0.2,1.2c-0.2,0-0.3,0-0.5-0.1c-0.1,0-0.3,0-0.4,0c-0.3,0-0.6,0.1-0.7,0.3
				s-0.3,0.5-0.3,0.9c0,0.4,0.1,0.8,0.2,1.1s0.2,0.7,0.2,1.1c0,0.5-0.2,0.8-0.5,1c-0.3,0.2-0.8,0.4-1.3,0.4v0.2c0.6,0,1,0.1,1.3,0.4
				c0.3,0.3,0.5,0.6,0.5,1c0,0.4-0.1,0.8-0.2,1.2s-0.2,0.7-0.2,1.1c0,0.4,0.1,0.7,0.3,1c0.2,0.2,0.4,0.3,0.7,0.3c0.1,0,0.3,0,0.4,0
				s0.3,0,0.5,0l0.2,1.2c-0.2,0-0.3,0.1-0.5,0.1C-755.2-2654.2-755.4-2654.2-755.7-2654.2z"/>
			<path class="st3" d="M-752-2655.6v-1.3h2.6v1.3H-752z M-751.9-2663.1v-1.4l2.3-0.8v1.4L-751.9-2663.1z M-749.6-2655.6v-9.7h1.4
				v9.7H-749.6z M-748.3-2655.6v-1.3h2.3v1.3H-748.3z"/>
			<path class="st3" d="M-742.4-2654.2c-0.3,0-0.5,0-0.7,0c-0.2,0-0.3-0.1-0.5-0.1l0.2-1.2c0.2,0,0.3,0,0.5,0s0.3,0,0.4,0
				c0.3,0,0.6-0.1,0.7-0.3c0.2-0.2,0.3-0.5,0.3-1c0-0.4-0.1-0.7-0.2-1.1s-0.2-0.7-0.2-1.2c0-0.4,0.2-0.8,0.5-1
				c0.3-0.3,0.8-0.4,1.3-0.4v-0.2c-0.6,0-1-0.1-1.3-0.4c-0.3-0.2-0.5-0.6-0.5-1c0-0.4,0.1-0.8,0.2-1.1s0.2-0.7,0.2-1.1
				c0-0.4-0.1-0.7-0.3-0.9s-0.4-0.3-0.7-0.3c-0.1,0-0.3,0-0.4,0c-0.1,0-0.3,0-0.5,0.1l-0.2-1.2c0.2,0,0.3-0.1,0.5-0.1
				c0.2,0,0.4,0,0.7,0c0.7,0,1.3,0.2,1.7,0.6c0.4,0.4,0.6,1,0.6,1.8c0,0.4,0,0.8-0.1,1.1s-0.1,0.8-0.1,1.2c0,0.2,0.1,0.3,0.2,0.4
				s0.3,0.2,0.5,0.3c0.2,0.1,0.4,0.1,0.6,0.2c0.2,0,0.4,0.1,0.5,0.1v1.1c-0.2,0-0.5,0-0.8,0.1c-0.3,0.1-0.5,0.2-0.8,0.3
				c-0.2,0.1-0.3,0.3-0.3,0.6c0,0.4,0,0.8,0.1,1.2s0.1,0.8,0.1,1.1c0,0.8-0.2,1.4-0.6,1.9C-741.1-2654.4-741.6-2654.2-742.4-2654.2z
				"/>
		</g>
	</g>
</g>
<g transform="translate(900,2698.344612520813)">
	<circle class="st1" cx="-802" cy="-2660.5" r="10"/>
	<g>
		<g class="st2">
			<path class="st3" d="M-898.9-2655.6v-9.7h1.4v9.7H-898.9z M-898.1-2660.4v-0.7h2.8v0.7H-898.1z M-897.6-2660.8v-0.6h1.6
				c0.5,0,0.9-0.1,1.2-0.3c0.3-0.2,0.4-0.6,0.4-1c0-0.4-0.1-0.7-0.4-1s-0.7-0.3-1.3-0.3h-1.5l-0.2-1.3h1.8c1,0,1.7,0.2,2.3,0.6
				c0.5,0.4,0.8,1,0.8,1.8c0,0.7-0.3,1.2-0.8,1.5c-0.5,0.4-1.2,0.5-2.2,0.5H-897.6z M-897.6-2655.6v-1.3h2.1c0.6,0,1.1-0.1,1.4-0.4
				c0.3-0.3,0.5-0.7,0.5-1.2c0-0.5-0.2-0.9-0.5-1.2c-0.3-0.3-0.8-0.4-1.5-0.4h-1.9l-0.2-0.6h2.4c1,0,1.7,0.2,2.3,0.6s0.8,1,0.8,1.8
				c0,0.8-0.3,1.5-0.8,2s-1.2,0.7-2.2,0.7H-897.6z"/>
			<path class="st3" d="M-890.7-2655.6v-1.2h2.9v1.2H-890.7z M-890.3-2661.7v-1.2h3.8v1.2H-890.3z M-887.3-2664
				c-0.3,0-0.5-0.1-0.7-0.3c-0.2-0.2-0.3-0.4-0.3-0.7c0-0.3,0.1-0.5,0.3-0.7s0.4-0.3,0.7-0.3c0.3,0,0.5,0.1,0.7,0.3s0.3,0.4,0.3,0.7
				c0,0.3-0.1,0.5-0.3,0.7C-886.8-2664.1-887-2664-887.3-2664z M-887.9-2655.6v-6.8h1.4v6.8H-887.9z M-886.6-2655.6v-1.2h2.4v1.2
				H-886.6z"/>
			<path class="st3" d="M-882.4-2655.6v-7.2h1.3l0.1,1.5v5.7H-882.4z M-878-2655.6v-4.7c0-0.4-0.1-0.8-0.3-1s-0.5-0.4-1-0.4
				c-1.1,0-1.7,0.7-1.7,2l-0.4-1.9h0.6c0-0.5,0.2-0.9,0.5-1.1c0.3-0.2,0.8-0.4,1.4-0.4c0.8,0,1.4,0.2,1.8,0.7s0.6,1.1,0.6,2v4.7
				H-878z"/>
			<path class="st3" d="M-872.4-2655.5c-0.8,0-1.3-0.2-1.8-0.5s-0.6-0.9-0.6-1.5c0-0.8,0.3-1.4,0.9-1.8s1.4-0.6,2.4-0.6
				c0.4,0,0.8,0,1.2,0.1c0.3,0.1,0.6,0.1,0.9,0.2l-0.3,1c-0.3-0.1-0.6-0.1-0.9-0.1c-0.3,0-0.6,0-0.9,0c-1.3,0-1.9,0.4-1.9,1.1
				c0,0.3,0.1,0.6,0.3,0.8s0.5,0.3,0.9,0.3c0.5,0,0.8-0.1,1.1-0.2s0.5-0.4,0.7-0.6s0.2-0.5,0.2-0.7v-0.8l0.4,1.9h-0.6l0.2-0.2
				c0,0.4-0.1,0.8-0.3,1c-0.2,0.3-0.5,0.5-0.8,0.6C-871.5-2655.6-871.9-2655.5-872.4-2655.5z M-869.8-2655.6l-0.1-2.1l-0.2-0.6v-1.9
				c0-0.5-0.2-0.8-0.5-1.1c-0.3-0.2-0.8-0.3-1.5-0.4l-1.7,0l0.1-1.3l1.5,0c1.2,0,2.1,0.3,2.7,0.8c0.6,0.5,0.9,1.2,0.9,2.2v3l1.2,0.2
				v1.2L-869.8-2655.6z"/>
			<path class="st3" d="M-866.6-2655.6v-1.2h4.8v1.2H-866.6z M-866.4-2661.7v-1.2h2.4l0.1,1.2H-866.4z M-865-2655.6v-7.2h1.2
				l0.3,2.1v5.2H-865z M-863.6-2658.7l-0.4-2.3h0.6c0.1-1.3,0.7-2,2-2c0.7,0,1.3,0.2,1.6,0.6s0.5,1.1,0.5,2.1h-1.4
				c0-0.5-0.1-0.9-0.2-1.1s-0.4-0.3-0.8-0.3c-0.6,0-1.1,0.3-1.4,0.8C-863.4-2660.5-863.6-2659.7-863.6-2658.7z"/>
			<path class="st3" d="M-855.7-2655.6l-2.9-7.2h1.5l2.4,6.2h0.2v1.1H-855.7z M-858.5-2652.3l-0.1-1.3l1.1-0.1
				c0.5-0.1,0.9-0.2,1.2-0.4s0.6-0.5,0.9-0.9c0.2-0.4,0.5-0.9,0.6-1.5l1.8-6.3h1.5l-2.1,6.6c-0.3,0.9-0.6,1.6-0.9,2.1
				s-0.7,0.9-1.2,1.2s-1,0.4-1.7,0.5L-858.5-2652.3z"/>
			<path class="st3" d="M-845.1-2654.2c-0.7,0-1.3-0.2-1.7-0.7c-0.4-0.4-0.6-1.1-0.6-1.9c0-0.4,0-0.8,0.1-1.1s0.1-0.8,0.1-1.2
				c0-0.3-0.1-0.5-0.3-0.6c-0.2-0.1-0.5-0.2-0.8-0.3c-0.3-0.1-0.5-0.1-0.8-0.1v-1.1c0.2,0,0.3,0,0.6-0.1c0.2,0,0.4-0.1,0.6-0.2
				c0.2-0.1,0.4-0.2,0.5-0.3s0.2-0.3,0.2-0.4c0-0.4,0-0.8-0.1-1.2s-0.1-0.7-0.1-1.1c0-0.8,0.2-1.4,0.6-1.8c0.4-0.4,1-0.6,1.7-0.6
				c0.3,0,0.5,0,0.7,0c0.2,0,0.3,0.1,0.5,0.1l-0.2,1.2c-0.2,0-0.3,0-0.5-0.1c-0.1,0-0.3,0-0.4,0c-0.3,0-0.6,0.1-0.7,0.3
				s-0.3,0.5-0.3,0.9c0,0.4,0.1,0.8,0.2,1.1s0.2,0.7,0.2,1.1c0,0.5-0.2,0.8-0.5,1c-0.3,0.2-0.8,0.4-1.3,0.4v0.2c0.6,0,1,0.1,1.3,0.4
				c0.3,0.3,0.5,0.6,0.5,1c0,0.4-0.1,0.8-0.2,1.2s-0.2,0.7-0.2,1.1c0,0.4,0.1,0.7,0.3,1c0.2,0.2,0.4,0.3,0.7,0.3c0.1,0,0.3,0,0.4,0
				s0.3,0,0.5,0l0.2,1.2c-0.2,0-0.3,0.1-0.5,0.1C-844.6-2654.2-844.9-2654.2-845.1-2654.2z"/>
			<path class="st3" d="M-839.2-2653.5v-13.9h1.4v13.9H-839.2z"/>
			<path class="st3" d="M-831-2653.5v-13.9h1.4v13.9H-831z"/>
			<path class="st3" d="M-823.6-2654.2c-0.3,0-0.5,0-0.7,0c-0.2,0-0.3-0.1-0.5-0.1l0.2-1.2c0.2,0,0.3,0,0.5,0s0.3,0,0.4,0
				c0.3,0,0.6-0.1,0.7-0.3c0.2-0.2,0.3-0.5,0.3-1c0-0.4-0.1-0.7-0.2-1.1s-0.2-0.7-0.2-1.2c0-0.4,0.2-0.8,0.5-1
				c0.3-0.3,0.8-0.4,1.3-0.4v-0.2c-0.6,0-1-0.1-1.3-0.4c-0.3-0.2-0.5-0.6-0.5-1c0-0.4,0.1-0.8,0.2-1.1s0.2-0.7,0.2-1.1
				c0-0.4-0.1-0.7-0.3-0.9s-0.4-0.3-0.7-0.3c-0.1,0-0.3,0-0.4,0c-0.1,0-0.3,0-0.5,0.1l-0.2-1.2c0.2,0,0.3-0.1,0.5-0.1
				c0.2,0,0.4,0,0.7,0c0.7,0,1.3,0.2,1.7,0.6c0.4,0.4,0.6,1,0.6,1.8c0,0.4,0,0.8-0.1,1.1s-0.1,0.8-0.1,1.2c0,0.2,0.1,0.3,0.2,0.4
				s0.3,0.2,0.5,0.3c0.2,0.1,0.4,0.1,0.6,0.2c0.2,0,0.4,0.1,0.5,0.1v1.1c-0.2,0-0.5,0-0.8,0.1c-0.3,0.1-0.5,0.2-0.8,0.3
				c-0.2,0.1-0.3,0.3-0.3,0.6c0,0.4,0,0.8,0.1,1.2s0.1,0.8,0.1,1.1c0,0.8-0.2,1.4-0.6,1.9C-822.3-2654.4-822.9-2654.2-823.6-2654.2z
				"/>
		</g>
	</g>
</g>
</svg>
