<?xml version="1.0" encoding="utf-8"?>
<!-- Generator: Adobe Illustrator 22.1.0, SVG Export Plug-In . SVG Version: 6.00 Build 0)  -->
<svg version="1.1" id="Layer_1" xmlns="http://www.w3.org/2000/svg" xmlns:xlink="http://www.w3.org/1999/xlink" x="0px" y="0px"
	 viewBox="0 0 1063.3 225" style="enable-background:new 0 0 1063.3 225;" xml:space="preserve">
<style type="text/css">
	.st0{fill:#222222;stroke:#4682B4;stroke-width:3.3291;}
	.st1{fill:none;stroke:#AAAAAA;stroke-width:1.9018;}
	.st2{fill:#222222;stroke:#4682B4;stroke-width:2.8527;}
	.st3{enable-background:new    ;}
	.st4{fill:#EEEEEE;}
</style>
<rect class="st0" width="1063.3" height="225"/>
<path class="st1" d="M827.6,165c85.6,0,85.6-25,171.2-25"/>
<path class="st1" d="M827.6,165c85.6,0,85.6,25,171.2,25"/>
<path class="st1" d="M656.4,140c85.6,0,85.6-25,171.2-25"/>
<path class="st1" d="M656.4,140c85.6,0,85.6,25,171.2,25"/>
<path class="st1" d="M485.3,115c85.6,0,85.6-25,171.2-25"/>
<path class="st1" d="M485.3,115c85.6,0,85.6,25,171.2,25"/>
<path class="st1" d="M314.1,90c85.6,0,85.6-25,171.2-25"/>
<path class="st1" d="M314.1,90c85.6,0,85.6,25,171.2,25"/>
<path class="st1" d="M142.9,65c85.6,0,85.6-25,171.2-25"/>
<path class="st1" d="M142.9,65c85.6,0,85.6,25,171.2,25"/>
<g transform="translate(1800,2829.9713438946533)">
	<circle class="st2" cx="-796.6" cy="-2641.4" r="9.5"/>
</g>
<g transform="translate(1800,2777.3205546549043)">
	<circle class="st2" cx="-796.2" cy="-2636.6" r="9.5"/>
</g>
<g transform="translate(1620,2803.6459516898717)">
	<circle class="st2" cx="-792.4" cy="-2635.5" r="9.5"/>
	<g>
		<g class="st3">
			<path class="st4" d="M-876.8-2630.9v-9.2h1.3v9.2H-876.8z M-876-2635.5v-0.7h2.7v0.7H-876z M-875.5-2635.8v-0.6h1.5
				c0.5,0,0.9-0.1,1.1-0.3s0.4-0.6,0.4-1c0-0.4-0.1-0.7-0.4-1c-0.3-0.2-0.7-0.3-1.2-0.3h-1.4l-0.2-1.2h1.7c1,0,1.6,0.2,2.2,0.6
				c0.5,0.4,0.8,1,0.8,1.7c0,0.7-0.3,1.1-0.8,1.4c-0.5,0.4-1.1,0.5-2.1,0.5L-875.5-2635.8L-875.5-2635.8z M-875.5-2630.9v-1.2h2
				c0.6,0,1-0.1,1.3-0.4c0.3-0.3,0.5-0.7,0.5-1.1c0-0.5-0.2-0.9-0.5-1.1s-0.8-0.4-1.4-0.4h-1.8l-0.2-0.6h2.3c1,0,1.6,0.2,2.2,0.6
				c0.6,0.4,0.8,1,0.8,1.7c0,0.8-0.3,1.4-0.8,1.9c-0.5,0.5-1.1,0.7-2.1,0.7L-875.5-2630.9L-875.5-2630.9z"/>
			<path class="st4" d="M-869-2630.9v-1.1h2.8v1.1H-869z M-868.6-2636.7v-1.1h3.6v1.1H-868.6z M-865.7-2638.9
				c-0.3,0-0.5-0.1-0.7-0.3s-0.3-0.4-0.3-0.7c0-0.3,0.1-0.5,0.3-0.7c0.2-0.2,0.4-0.3,0.7-0.3c0.3,0,0.5,0.1,0.7,0.3
				c0.2,0.2,0.3,0.4,0.3,0.7c0,0.3-0.1,0.5-0.3,0.7S-865.4-2638.9-865.7-2638.9z M-866.3-2630.9v-6.5h1.3v6.5H-866.3z
				 M-865.1-2630.9v-1.1h2.3v1.1H-865.1z"/>
			<path class="st4" d="M-861.1-2630.9v-6.8h1.2l0.1,1.4v5.4H-861.1z M-856.9-2630.9v-4.5c0-0.4-0.1-0.8-0.3-1s-0.5-0.4-1-0.4
				c-1,0-1.6,0.7-1.6,1.9l-0.4-1.8h0.6c0-0.5,0.2-0.9,0.5-1c0.3-0.2,0.8-0.4,1.3-0.4c0.8,0,1.3,0.2,1.7,0.7s0.6,1,0.6,1.9v4.5
				L-856.9-2630.9L-856.9-2630.9z"/>
			<path class="st4" d="M-851.6-2630.8c-0.8,0-1.2-0.2-1.7-0.5c-0.5-0.3-0.6-0.9-0.6-1.4c0-0.8,0.3-1.3,0.9-1.7s1.3-0.6,2.3-0.6
				c0.4,0,0.8,0,1.1,0.1c0.3,0.1,0.6,0.1,0.9,0.2l-0.3,1c-0.3-0.1-0.6-0.1-0.9-0.1c-0.3,0-0.6,0-0.9,0c-1.2,0-1.8,0.4-1.8,1
				c0,0.3,0.1,0.6,0.3,0.8s0.5,0.3,0.9,0.3c0.5,0,0.8-0.1,1-0.2c0.3-0.2,0.5-0.4,0.7-0.6c0.2-0.2,0.2-0.5,0.2-0.7v-0.8l0.4,1.8h-0.6
				l0.2-0.2c0,0.4-0.1,0.8-0.3,1c-0.2,0.3-0.5,0.5-0.8,0.6C-850.7-2630.9-851.1-2630.8-851.6-2630.8z M-849.1-2630.9l-0.1-2
				l-0.2-0.6v-1.8c0-0.5-0.2-0.8-0.5-1c-0.3-0.2-0.8-0.3-1.4-0.4h-1.6l0.1-1.2h1.4c1.1,0,2,0.3,2.6,0.8c0.6,0.5,0.9,1.1,0.9,2.1v2.9
				l1.1,0.2v1.1L-849.1-2630.9z"/>
			<path class="st4" d="M-846-2630.9v-1.1h4.6v1.1H-846z M-845.9-2636.7v-1.1h2.3l0.1,1.1H-845.9z M-844.5-2630.9v-6.8h1.1l0.3,2
				v4.9L-844.5-2630.9L-844.5-2630.9z M-843.2-2633.8l-0.4-2.2h0.6c0.1-1.2,0.7-1.9,1.9-1.9c0.7,0,1.2,0.2,1.5,0.6s0.5,1,0.5,2h-1.3
				c0-0.5-0.1-0.9-0.2-1c-0.2-0.2-0.4-0.3-0.8-0.3c-0.6,0-1,0.3-1.3,0.8C-843-2635.5-843.2-2634.8-843.2-2633.8z"/>
			<path class="st4" d="M-835.7-2630.9l-2.8-6.8h1.4l2.3,5.9h0.2v1L-835.7-2630.9L-835.7-2630.9z M-838.3-2627.8l-0.1-1.2l1-0.1
				c0.5-0.1,0.9-0.2,1.1-0.4c0.3-0.2,0.6-0.5,0.9-0.9c0.2-0.4,0.5-0.9,0.6-1.4l1.7-6h1.4l-2,6.3c-0.3,0.9-0.6,1.5-0.9,2
				c-0.3,0.5-0.7,0.9-1.1,1.1c-0.5,0.3-1,0.4-1.6,0.5L-838.3-2627.8z"/>
			<path class="st4" d="M-825.6-2629.6c-0.7,0-1.2-0.2-1.6-0.7c-0.4-0.4-0.6-1-0.6-1.8c0-0.4,0-0.8,0.1-1c0.1-0.3,0.1-0.8,0.1-1.1
				c0-0.3-0.1-0.5-0.3-0.6s-0.5-0.2-0.8-0.3c-0.3-0.1-0.5-0.1-0.8-0.1v-1c0.2,0,0.3,0,0.6-0.1c0.2,0,0.4-0.1,0.6-0.2
				c0.2-0.1,0.4-0.2,0.5-0.3c0.1-0.1,0.2-0.3,0.2-0.4c0-0.4,0-0.8-0.1-1.1c-0.1-0.4-0.1-0.7-0.1-1c0-0.8,0.2-1.3,0.6-1.7
				c0.4-0.4,1-0.6,1.6-0.6c0.3,0,0.5,0,0.7,0s0.3,0.1,0.5,0.1l-0.2,1.1c-0.2,0-0.3,0-0.5-0.1c-0.1,0-0.3,0-0.4,0
				c-0.3,0-0.6,0.1-0.7,0.3c-0.2,0.2-0.3,0.5-0.3,0.9c0,0.4,0.1,0.8,0.2,1c0.1,0.3,0.2,0.7,0.2,1c0,0.5-0.2,0.8-0.5,1
				s-0.8,0.4-1.2,0.4v0.2c0.6,0,1,0.1,1.2,0.4c0.3,0.3,0.5,0.6,0.5,1c0,0.4-0.1,0.8-0.2,1.1c-0.1,0.4-0.2,0.7-0.2,1s0.1,0.7,0.3,1
				c0.2,0.2,0.4,0.3,0.7,0.3c0.1,0,0.3,0,0.4,0c0.1,0,0.3,0,0.5,0l0.2,1.1c-0.2,0-0.3,0.1-0.5,0.1
				C-825.1-2629.6-825.4-2629.6-825.6-2629.6z"/>
			<path class="st4" d="M-822.6-2634.9v-1.2h6.5v1.2H-822.6z"/>
			<path class="st4" d="M-813-2629.6c-0.3,0-0.5,0-0.7,0s-0.3-0.1-0.5-0.1l0.2-1.1c0.2,0,0.3,0,0.5,0c0.1,0,0.3,0,0.4,0
				c0.3,0,0.6-0.1,0.7-0.3c0.2-0.2,0.3-0.5,0.3-1c0-0.4-0.1-0.7-0.2-1c-0.1-0.4-0.2-0.7-0.2-1.1c0-0.4,0.2-0.8,0.5-1
				c0.3-0.3,0.8-0.4,1.2-0.4v-0.2c-0.6,0-1-0.1-1.2-0.4c-0.3-0.2-0.5-0.6-0.5-1c0-0.4,0.1-0.8,0.2-1c0.1-0.3,0.2-0.7,0.2-1
				c0-0.4-0.1-0.7-0.3-0.9s-0.4-0.3-0.7-0.3c-0.1,0-0.3,0-0.4,0s-0.3,0-0.5,0.1l-0.2-1.1c0.2,0,0.3-0.1,0.5-0.1s0.4,0,0.7,0
				c0.7,0,1.2,0.2,1.6,0.6c0.4,0.4,0.6,1,0.6,1.7c0,0.4,0,0.8-0.1,1c-0.1,0.3-0.1,0.8-0.1,1.1c0,0.2,0.1,0.3,0.2,0.4
				c0.1,0.1,0.3,0.2,0.5,0.3c0.2,0.1,0.4,0.1,0.6,0.2c0.2,0,0.4,0.1,0.5,0.1v1c-0.2,0-0.5,0-0.8,0.1c-0.3,0.1-0.5,0.2-0.8,0.3
				c-0.2,0.1-0.3,0.3-0.3,0.6c0,0.4,0,0.8,0.1,1.1c0.1,0.4,0.1,0.8,0.1,1c0,0.8-0.2,1.3-0.6,1.8
				C-811.7-2629.7-812.3-2629.6-813-2629.6z"/>
		</g>
	</g>
</g>
<g transform="translate(1620,2750.995396930375)">
	<circle class="st2" cx="-792.4" cy="-2633" r="9.5"/>
	<g>
		<g class="st3">
			<path class="st4" d="M-776.1-2636.3v-1.2h5.6v1.2H-776.1z M-776.1-2628.3v-1.2h5.6v1.2H-776.1z M-774-2628.3v-9.2h1.3v9.2H-774z"
				/>
			<path class="st4" d="M-768.3-2628.3v-6.8h1.2l0.1,1.4v5.4H-768.3z M-764.1-2628.3v-4.5c0-0.4-0.1-0.8-0.3-1
				c-0.2-0.2-0.5-0.4-1-0.4c-1,0-1.6,0.7-1.6,1.9l-0.4-1.8h0.6c0-0.5,0.2-0.9,0.5-1c0.3-0.2,0.8-0.4,1.3-0.4c0.8,0,1.3,0.2,1.7,0.7
				c0.4,0.5,0.6,1,0.6,1.9v4.5L-764.1-2628.3L-764.1-2628.3z"/>
			<path class="st4" d="M-761.2-2634.1v-1.1h6.3v1.1H-761.2z M-759.4-2631.5v-5.7h1.3v5.7H-759.4z M-756.5-2628.2
				c-1,0-1.8-0.2-2.3-0.7c-0.5-0.5-0.7-1.1-0.7-2.1v-1.1h1.3v1.1c0,0.6,0.1,1,0.4,1.2s0.7,0.4,1.3,0.4c0.2,0,0.5,0,0.7,0
				c0.3,0,0.5-0.1,0.9-0.1l0.2,1.2c-0.3,0.1-0.6,0.1-0.9,0.1C-755.9-2628.2-756.2-2628.2-756.5-2628.2z"/>
			<path class="st4" d="M-748.4-2627c-0.7,0-1.2-0.2-1.6-0.7c-0.4-0.4-0.6-1-0.6-1.8c0-0.4,0-0.8,0.1-1c0.1-0.3,0.1-0.8,0.1-1.1
				c0-0.3-0.1-0.5-0.3-0.6s-0.5-0.2-0.8-0.3s-0.5-0.1-0.8-0.1v-1c0.2,0,0.3,0,0.6-0.1c0.2,0,0.4-0.1,0.6-0.2
				c0.2-0.1,0.4-0.2,0.5-0.3c0.1-0.1,0.2-0.3,0.2-0.4c0-0.4,0-0.8-0.1-1.1c-0.1-0.4-0.1-0.7-0.1-1c0-0.8,0.2-1.3,0.6-1.7
				s1-0.6,1.6-0.6c0.3,0,0.5,0,0.7,0c0.2,0,0.3,0.1,0.5,0.1l-0.2,1.1c-0.2,0-0.3,0-0.5-0.1c-0.1,0-0.3,0-0.4,0
				c-0.3,0-0.6,0.1-0.7,0.3c-0.2,0.2-0.3,0.5-0.3,0.9s0.1,0.8,0.2,1c0.1,0.3,0.2,0.7,0.2,1c0,0.5-0.2,0.8-0.5,1
				c-0.3,0.2-0.8,0.4-1.2,0.4v0.2c0.6,0,1,0.1,1.2,0.4c0.3,0.3,0.5,0.6,0.5,1c0,0.4-0.1,0.8-0.2,1.1c-0.1,0.4-0.2,0.7-0.2,1
				c0,0.4,0.1,0.7,0.3,1c0.2,0.2,0.4,0.3,0.7,0.3c0.1,0,0.3,0,0.4,0s0.3,0,0.5,0l0.2,1.1c-0.2,0-0.3,0.1-0.5,0.1
				C-747.9-2627-748.1-2627-748.4-2627z"/>
			<path class="st4" d="M-743.5-2632.6l-0.2-0.9c0.7-0.1,1.2-0.2,1.6-0.4c0.4-0.2,0.8-0.4,1-0.7c0.2-0.3,0.3-0.6,0.3-0.9
				c0-0.4-0.1-0.7-0.4-0.9c-0.3-0.2-0.6-0.3-1-0.3c-0.3,0-0.7,0.1-1,0.3c-0.4,0.2-0.8,0.4-1,0.8l-0.9-0.9c0.4-0.5,0.9-0.8,1.4-1
				c0.6-0.2,1.1-0.3,1.7-0.3c0.9,0,1.5,0.2,2,0.6c0.5,0.4,0.7,0.9,0.7,1.5c0,0.6-0.2,1-0.6,1.4c-0.4,0.4-0.9,0.7-1.4,0.9v0.8h-2.1
				V-2632.6z M-742.6-2628.2c-0.5,0-1,0-1.3-0.1c-0.4-0.1-0.8-0.1-1-0.2l0.2-1.2c0.3,0.1,0.6,0.2,0.9,0.2c0.3,0.1,0.8,0.1,1.2,0.1
				c0.7,0,1.1-0.1,1.5-0.4c0.4-0.3,0.6-0.7,0.6-1.1c0-0.4-0.1-0.7-0.3-0.9c-0.2-0.2-0.5-0.4-1-0.6c-0.4-0.1-0.9-0.2-1.4-0.2h-0.2
				l-0.2-0.9l2,0.2c0.8,0.1,1.3,0.3,1.8,0.8c0.5,0.4,0.7,1,0.7,1.7c0,0.9-0.3,1.4-0.9,1.9C-740.7-2628.4-741.5-2628.2-742.6-2628.2z
				"/>
			<path class="st4" d="M-735.7-2627c-0.3,0-0.5,0-0.7,0c-0.2,0-0.3-0.1-0.5-0.1l0.2-1.1c0.2,0,0.3,0,0.5,0c0.1,0,0.3,0,0.4,0
				c0.3,0,0.6-0.1,0.7-0.3c0.2-0.2,0.3-0.5,0.3-1c0-0.4-0.1-0.7-0.2-1c-0.1-0.4-0.2-0.7-0.2-1.1c0-0.4,0.2-0.8,0.5-1
				c0.3-0.3,0.8-0.4,1.2-0.4v-0.2c-0.6,0-1-0.1-1.2-0.4c-0.3-0.2-0.5-0.6-0.5-1c0-0.4,0.1-0.8,0.2-1c0.1-0.3,0.2-0.7,0.2-1
				s-0.1-0.7-0.3-0.9c-0.2-0.2-0.4-0.3-0.7-0.3c-0.1,0-0.3,0-0.4,0s-0.3,0-0.5,0.1l-0.2-1.1c0.2,0,0.3-0.1,0.5-0.1
				c0.2,0,0.4,0,0.7,0c0.7,0,1.2,0.2,1.6,0.6c0.4,0.4,0.6,1,0.6,1.7c0,0.4,0,0.8-0.1,1c-0.1,0.3-0.1,0.8-0.1,1.1
				c0,0.2,0.1,0.3,0.2,0.4c0.1,0.1,0.3,0.2,0.5,0.3s0.4,0.1,0.6,0.2c0.2,0,0.4,0.1,0.5,0.1v1c-0.2,0-0.5,0-0.8,0.1s-0.5,0.2-0.8,0.3
				c-0.2,0.1-0.3,0.3-0.3,0.6c0,0.4,0,0.8,0.1,1.1c0.1,0.4,0.1,0.8,0.1,1c0,0.8-0.2,1.3-0.6,1.8C-734.5-2627.2-735-2627-735.7-2627z
				"/>
		</g>
	</g>
</g>
<g transform="translate(1440,2777.3205546549043)">
	<circle class="st2" cx="-783.6" cy="-2634.3" r="9.5"/>
	<g>
		<g class="st3">
			<path class="st4" d="M-875.7-2629.6v-9.2h1.3v9.2H-875.7z M-875-2634.2v-0.7h2.7v0.7H-875z M-874.5-2634.5v-0.6h1.5
				c0.5,0,0.9-0.1,1.1-0.3c0.3-0.2,0.4-0.6,0.4-1c0-0.4-0.1-0.7-0.4-1c-0.3-0.3-0.7-0.3-1.2-0.3h-1.4l-0.2-1.2h1.7
				c1,0,1.6,0.2,2.2,0.6c0.5,0.4,0.8,1,0.8,1.7c0,0.7-0.3,1.1-0.8,1.4c-0.5,0.4-1.1,0.5-2.1,0.5L-874.5-2634.5L-874.5-2634.5z
				 M-874.5-2629.6v-1.2h2c0.6,0,1-0.1,1.3-0.4c0.3-0.3,0.5-0.7,0.5-1.1c0-0.5-0.2-0.9-0.5-1.1c-0.3-0.3-0.8-0.4-1.4-0.4h-1.8
				l-0.2-0.6h2.3c1,0,1.6,0.2,2.2,0.6c0.6,0.4,0.8,1,0.8,1.7s-0.3,1.4-0.8,1.9c-0.5,0.5-1.1,0.7-2.1,0.7L-874.5-2629.6
				L-874.5-2629.6z"/>
			<path class="st4" d="M-867.9-2629.6v-1.1h2.8v1.1H-867.9z M-867.5-2635.4v-1.1h3.6v1.1H-867.5z M-864.7-2637.6
				c-0.3,0-0.5-0.1-0.7-0.3c-0.2-0.2-0.3-0.4-0.3-0.7s0.1-0.5,0.3-0.7s0.4-0.3,0.7-0.3s0.5,0.1,0.7,0.3s0.3,0.4,0.3,0.7
				s-0.1,0.5-0.3,0.7C-864.2-2637.7-864.4-2637.6-864.7-2637.6z M-865.3-2629.6v-6.5h1.3v6.5H-865.3z M-864-2629.6v-1.1h2.3v1.1
				H-864z"/>
			<path class="st4" d="M-860-2629.6v-6.8h1.2l0.1,1.4v5.4H-860z M-855.8-2629.6v-4.5c0-0.4-0.1-0.8-0.3-1s-0.5-0.4-1-0.4
				c-1,0-1.6,0.7-1.6,1.9l-0.4-1.8h0.6c0-0.5,0.2-0.9,0.5-1s0.8-0.4,1.3-0.4c0.8,0,1.3,0.2,1.7,0.7c0.4,0.5,0.6,1,0.6,1.9v4.5
				L-855.8-2629.6L-855.8-2629.6z"/>
			<path class="st4" d="M-850.5-2629.5c-0.8,0-1.2-0.2-1.7-0.5c-0.5-0.3-0.6-0.9-0.6-1.4c0-0.8,0.3-1.3,0.9-1.7
				c0.6-0.4,1.3-0.6,2.3-0.6c0.4,0,0.8,0,1.1,0.1c0.3,0.1,0.6,0.1,0.9,0.2l-0.3,1c-0.3-0.1-0.6-0.1-0.9-0.1c-0.3,0-0.6,0-0.9,0
				c-1.2,0-1.8,0.4-1.8,1c0,0.3,0.1,0.6,0.3,0.8c0.2,0.2,0.5,0.3,0.9,0.3c0.5,0,0.8-0.1,1-0.2c0.3-0.1,0.5-0.4,0.7-0.6
				c0.2-0.2,0.2-0.5,0.2-0.7v-0.8l0.4,1.8h-0.6l0.2-0.2c0,0.4-0.1,0.8-0.3,1c-0.2,0.3-0.5,0.5-0.8,0.6
				C-849.7-2629.6-850-2629.5-850.5-2629.5z M-848-2629.6l-0.1-2l-0.2-0.6v-1.8c0-0.5-0.2-0.8-0.5-1c-0.3-0.2-0.8-0.3-1.4-0.4h-1.6
				l0.1-1.2h1.4c1.1,0,2,0.3,2.6,0.8c0.6,0.5,0.9,1.1,0.9,2.1v2.9l1.1,0.2v1.1L-848-2629.6z"/>
			<path class="st4" d="M-845-2629.6v-1.1h4.6v1.1H-845z M-844.8-2635.4v-1.1h2.3l0.1,1.1H-844.8z M-843.5-2629.6v-6.8h1.1l0.3,2
				v4.9L-843.5-2629.6L-843.5-2629.6z M-842.2-2632.5l-0.4-2.2h0.6c0.1-1.2,0.7-1.9,1.9-1.9c0.7,0,1.2,0.2,1.5,0.6
				c0.3,0.4,0.5,1,0.5,2h-1.3c0-0.5-0.1-0.9-0.2-1c-0.1-0.2-0.4-0.3-0.8-0.3c-0.6,0-1,0.3-1.3,0.8
				C-842-2634.3-842.2-2633.5-842.2-2632.5z"/>
			<path class="st4" d="M-834.6-2629.6l-2.8-6.8h1.4l2.3,5.9h0.2v1L-834.6-2629.6L-834.6-2629.6z M-837.3-2626.5l-0.1-1.2l1-0.1
				c0.5-0.1,0.9-0.2,1.1-0.4c0.3-0.2,0.6-0.5,0.9-0.9c0.2-0.4,0.5-0.9,0.6-1.4l1.7-6h1.4l-2,6.3c-0.3,0.9-0.6,1.5-0.9,2
				c-0.3,0.5-0.7,0.9-1.1,1.1c-0.5,0.3-1,0.4-1.6,0.5L-837.3-2626.5z"/>
			<path class="st4" d="M-824.6-2628.3c-0.7,0-1.2-0.2-1.6-0.7c-0.4-0.4-0.6-1-0.6-1.8c0-0.4,0-0.8,0.1-1c0.1-0.3,0.1-0.8,0.1-1.1
				c0-0.3-0.1-0.5-0.3-0.6c-0.2-0.1-0.5-0.2-0.8-0.3c-0.3-0.1-0.5-0.1-0.8-0.1v-1c0.2,0,0.3,0,0.6-0.1c0.2,0,0.4-0.1,0.6-0.2
				c0.2-0.1,0.4-0.2,0.5-0.3c0.1-0.1,0.2-0.3,0.2-0.4c0-0.4,0-0.8-0.1-1.1c-0.1-0.4-0.1-0.7-0.1-1c0-0.8,0.2-1.3,0.6-1.7
				c0.4-0.4,1-0.6,1.6-0.6c0.3,0,0.5,0,0.7,0s0.3,0.1,0.5,0.1l-0.2,1.1c-0.2,0-0.3,0-0.5-0.1c-0.1,0-0.3,0-0.4,0
				c-0.3,0-0.6,0.1-0.7,0.3c-0.1,0.2-0.3,0.5-0.3,0.9c0,0.4,0.1,0.8,0.2,1c0.1,0.3,0.2,0.7,0.2,1c0,0.5-0.2,0.8-0.5,1
				c-0.3,0.2-0.8,0.4-1.2,0.4v0.2c0.6,0,1,0.1,1.2,0.4c0.3,0.3,0.5,0.6,0.5,1s-0.1,0.8-0.2,1.1c-0.1,0.4-0.2,0.7-0.2,1
				c0,0.4,0.1,0.7,0.3,1c0.2,0.2,0.4,0.3,0.7,0.3c0.1,0,0.3,0,0.4,0c0.1,0,0.3,0,0.5,0l0.2,1.1c-0.2,0-0.3,0.1-0.5,0.1
				C-824.1-2628.3-824.4-2628.3-824.6-2628.3z"/>
			<path class="st4" d="M-821.2-2631v-1.4l4.6-1.7v-0.1l-4.6-1.7v-1.4l6.2,2.6v1.3L-821.2-2631z"/>
			<path class="st4" d="M-813.7-2635.2v-1.2h6.5v1.2H-813.7z M-813.7-2632v-1.2h6.5v1.2H-813.7z"/>
			<path class="st4" d="M-804.1-2628.3c-0.3,0-0.5,0-0.7,0s-0.3-0.1-0.5-0.1l0.2-1.1c0.2,0,0.3,0,0.5,0c0.1,0,0.3,0,0.4,0
				c0.3,0,0.6-0.1,0.7-0.3c0.2-0.2,0.3-0.5,0.3-1c0-0.4-0.1-0.7-0.2-1c-0.1-0.4-0.2-0.7-0.2-1.1c0-0.4,0.2-0.8,0.5-1
				c0.3-0.3,0.8-0.4,1.2-0.4v-0.2c-0.6,0-1-0.1-1.2-0.4c-0.3-0.2-0.5-0.6-0.5-1s0.1-0.8,0.2-1c0.1-0.3,0.2-0.7,0.2-1
				c0-0.4-0.1-0.7-0.3-0.9s-0.4-0.3-0.7-0.3c-0.1,0-0.3,0-0.4,0s-0.3,0-0.5,0.1l-0.2-1.1c0.2,0,0.3-0.1,0.5-0.1s0.4,0,0.7,0
				c0.7,0,1.2,0.2,1.6,0.6c0.4,0.4,0.6,1,0.6,1.7c0,0.4,0,0.8-0.1,1c-0.1,0.3-0.1,0.8-0.1,1.1c0,0.2,0.1,0.3,0.2,0.4
				c0.1,0.1,0.3,0.2,0.5,0.3s0.4,0.1,0.6,0.2c0.2,0,0.4,0.1,0.5,0.1v1c-0.2,0-0.5,0-0.8,0.1c-0.3,0.1-0.5,0.2-0.8,0.3
				c-0.2,0.1-0.3,0.3-0.3,0.6c0,0.4,0,0.8,0.1,1.1c0.1,0.4,0.1,0.8,0.1,1c0,0.8-0.2,1.3-0.6,1.8
				C-802.9-2628.5-803.5-2628.3-804.1-2628.3z"/>
		</g>
	</g>
</g>
<g transform="translate(1440,2724.670004725594)">
	<circle class="st2" cx="-783.6" cy="-2631.7" r="9.5"/>
	<g>
		<g class="st3">
			<path class="st4" d="M-767.2-2635v-1.2h5.6v1.2H-767.2z M-767.2-2627v-1.2h5.6v1.2H-767.2z M-765.1-2627v-9.2h1.3v9.2H-765.1z"/>
			<path class="st4" d="M-759.4-2627v-6.8h1.2l0.1,1.4v5.4H-759.4z M-755.2-2627v-4.5c0-0.4-0.1-0.8-0.3-1c-0.2-0.2-0.5-0.4-1-0.4
				c-1,0-1.6,0.7-1.6,1.9l-0.4-1.8h0.6c0-0.5,0.2-0.9,0.5-1c0.3-0.2,0.8-0.4,1.3-0.4c0.8,0,1.3,0.2,1.7,0.7c0.4,0.5,0.6,1,0.6,1.9
				v4.5L-755.2-2627L-755.2-2627z"/>
			<path class="st4" d="M-752.4-2632.8v-1.1h6.3v1.1H-752.4z M-750.6-2630.2v-5.7h1.3v5.7H-750.6z M-747.6-2626.9
				c-1,0-1.8-0.2-2.3-0.7c-0.5-0.5-0.7-1.1-0.7-2.1v-1.1h1.3v1.1c0,0.6,0.1,1,0.4,1.2c0.3,0.3,0.7,0.4,1.3,0.4c0.2,0,0.5,0,0.7,0
				c0.3,0,0.5-0.1,0.9-0.1l0.2,1.2c-0.3,0.1-0.6,0.1-0.9,0.1C-747.1-2626.9-747.3-2626.9-747.6-2626.9z"/>
			<path class="st4" d="M-739.5-2625.7c-0.7,0-1.2-0.2-1.6-0.7c-0.4-0.4-0.6-1-0.6-1.8c0-0.4,0-0.8,0.1-1s0.1-0.8,0.1-1.1
				c0-0.3-0.1-0.5-0.3-0.6s-0.5-0.2-0.8-0.3c-0.3-0.1-0.5-0.1-0.8-0.1v-1c0.2,0,0.3,0,0.6-0.1c0.2,0,0.4-0.1,0.6-0.2
				c0.2-0.1,0.4-0.2,0.5-0.3c0.1-0.1,0.2-0.3,0.2-0.4c0-0.4,0-0.8-0.1-1.1s-0.1-0.7-0.1-1c0-0.8,0.2-1.3,0.6-1.7
				c0.4-0.4,1-0.6,1.6-0.6c0.3,0,0.5,0,0.7,0c0.2,0,0.3,0.1,0.5,0.1l-0.2,1.1c-0.2,0-0.3,0-0.5-0.1c-0.1,0-0.3,0-0.4,0
				c-0.3,0-0.6,0.1-0.7,0.3c-0.2,0.2-0.3,0.5-0.3,0.9c0,0.4,0.1,0.8,0.2,1c0.1,0.3,0.2,0.7,0.2,1c0,0.5-0.2,0.8-0.5,1
				s-0.8,0.4-1.2,0.4v0.2c0.6,0,1,0.1,1.2,0.4s0.5,0.6,0.5,1c0,0.4-0.1,0.8-0.2,1.1c-0.1,0.4-0.2,0.7-0.2,1s0.1,0.7,0.3,1
				c0.2,0.2,0.4,0.3,0.7,0.3c0.1,0,0.3,0,0.4,0s0.3,0,0.5,0l0.2,1.1c-0.2,0-0.3,0.1-0.5,0.1
				C-739.1-2625.7-739.3-2625.7-739.5-2625.7z"/>
			<path class="st4" d="M-736.7-2629.1l1-1.1h3.8v1.1H-736.7z M-736.7-2629.1l1.3-6.7h1.3l-1.3,6.7H-736.7z M-732-2627v-9.2h1.3v9.2
				H-732z M-730.9-2629.1v-1.1h1v1.1H-730.9z"/>
			<path class="st4" d="M-726.9-2625.7c-0.3,0-0.5,0-0.7,0c-0.2,0-0.3-0.1-0.5-0.1l0.2-1.1c0.2,0,0.3,0,0.5,0c0.1,0,0.3,0,0.4,0
				c0.3,0,0.6-0.1,0.7-0.3c0.2-0.2,0.3-0.5,0.3-1c0-0.4-0.1-0.7-0.2-1c-0.1-0.4-0.2-0.7-0.2-1.1c0-0.4,0.2-0.8,0.5-1
				c0.3-0.3,0.8-0.4,1.2-0.4v-0.2c-0.6,0-1-0.1-1.2-0.4c-0.3-0.2-0.5-0.6-0.5-1c0-0.4,0.1-0.8,0.2-1c0.1-0.3,0.2-0.7,0.2-1
				s-0.1-0.7-0.3-0.9s-0.4-0.3-0.7-0.3c-0.1,0-0.3,0-0.4,0s-0.3,0-0.5,0.1l-0.2-1.1c0.2,0,0.3-0.1,0.5-0.1c0.2,0,0.4,0,0.7,0
				c0.7,0,1.2,0.2,1.6,0.6c0.4,0.4,0.6,1,0.6,1.7c0,0.4,0,0.8-0.1,1c-0.1,0.3-0.1,0.8-0.1,1.1c0,0.2,0.1,0.3,0.2,0.4
				c0.1,0.1,0.3,0.2,0.5,0.3c0.2,0.1,0.4,0.1,0.6,0.2c0.2,0,0.4,0.1,0.5,0.1v1c-0.2,0-0.5,0-0.8,0.1s-0.5,0.2-0.8,0.3
				c-0.2,0.1-0.3,0.3-0.3,0.6c0,0.4,0,0.8,0.1,1.1c0.1,0.4,0.1,0.8,0.1,1c0,0.8-0.2,1.3-0.6,1.8
				C-725.7-2625.9-726.1-2625.7-726.9-2625.7z"/>
		</g>
	</g>
</g>
<g transform="translate(1260,2750.995396930375)">
	<circle class="st2" cx="-774.7" cy="-2633" r="9.5"/>
	<g>
		<g class="st3">
			<path class="st4" d="M-866.9-2628.3v-9.2h1.3v9.2H-866.9z M-866.1-2632.9v-0.7h2.7v0.7H-866.1z M-865.6-2633.2v-0.6h1.5
				c0.5,0,0.9-0.1,1.1-0.3c0.3-0.2,0.4-0.6,0.4-1s-0.1-0.7-0.4-1c-0.3-0.3-0.7-0.3-1.2-0.3h-1.4l-0.2-1.2h1.7c1,0,1.6,0.2,2.2,0.6
				c0.5,0.4,0.8,1,0.8,1.7c0,0.7-0.3,1.1-0.8,1.4c-0.5,0.4-1.1,0.5-2.1,0.5L-865.6-2633.2L-865.6-2633.2z M-865.6-2628.3v-1.2h2
				c0.6,0,1-0.1,1.3-0.4c0.3-0.3,0.5-0.7,0.5-1.1c0-0.5-0.2-0.9-0.5-1.1c-0.3-0.3-0.8-0.4-1.4-0.4h-1.8l-0.2-0.6h2.3
				c1,0,1.6,0.2,2.2,0.6c0.6,0.4,0.8,1,0.8,1.7s-0.3,1.4-0.8,1.9c-0.5,0.5-1.1,0.7-2.1,0.7L-865.6-2628.3L-865.6-2628.3z"/>
			<path class="st4" d="M-859.1-2628.3v-1.1h2.8v1.1H-859.1z M-858.7-2634.1v-1.1h3.6v1.1H-858.7z M-855.9-2636.3
				c-0.3,0-0.5-0.1-0.7-0.3c-0.2-0.2-0.3-0.4-0.3-0.7c0-0.3,0.1-0.5,0.3-0.7s0.4-0.3,0.7-0.3s0.5,0.1,0.7,0.3s0.3,0.4,0.3,0.7
				c0,0.3-0.1,0.5-0.3,0.7C-855.4-2636.4-855.6-2636.3-855.9-2636.3z M-856.4-2628.3v-6.5h1.3v6.5H-856.4z M-855.2-2628.3v-1.1h2.3
				v1.1H-855.2z"/>
			<path class="st4" d="M-851.2-2628.3v-6.8h1.2l0.1,1.4v5.4H-851.2z M-847-2628.3v-4.5c0-0.4-0.1-0.8-0.3-1c-0.2-0.2-0.5-0.4-1-0.4
				c-1,0-1.6,0.7-1.6,1.9l-0.4-1.8h0.6c0-0.5,0.2-0.9,0.5-1c0.3-0.2,0.8-0.4,1.3-0.4c0.8,0,1.3,0.2,1.7,0.7c0.4,0.5,0.6,1,0.6,1.9
				v4.5L-847-2628.3L-847-2628.3z"/>
			<path class="st4" d="M-841.7-2628.2c-0.8,0-1.2-0.2-1.7-0.5c-0.5-0.3-0.6-0.9-0.6-1.4c0-0.8,0.3-1.3,0.9-1.7
				c0.6-0.4,1.3-0.6,2.3-0.6c0.4,0,0.8,0,1.1,0.1c0.3,0.1,0.6,0.1,0.9,0.2l-0.3,1c-0.3-0.1-0.6-0.1-0.9-0.1c-0.3,0-0.6,0-0.9,0
				c-1.2,0-1.8,0.4-1.8,1c0,0.3,0.1,0.6,0.3,0.8c0.2,0.2,0.5,0.3,0.9,0.3c0.5,0,0.8-0.1,1-0.2c0.3-0.1,0.5-0.4,0.7-0.6
				c0.2-0.2,0.2-0.5,0.2-0.7v-0.8l0.4,1.8h-0.6l0.2-0.2c0,0.4-0.1,0.8-0.3,1c-0.2,0.3-0.5,0.5-0.8,0.6
				C-840.8-2628.3-841.2-2628.2-841.7-2628.2z M-839.2-2628.3l-0.1-2l-0.2-0.6v-1.8c0-0.5-0.2-0.8-0.5-1c-0.3-0.2-0.8-0.3-1.4-0.4
				h-1.6l0.1-1.2h1.4c1.1,0,2,0.3,2.6,0.8c0.6,0.5,0.9,1.1,0.9,2.1v2.9l1.1,0.2v1.1L-839.2-2628.3z"/>
			<path class="st4" d="M-836.2-2628.3v-1.1h4.6v1.1H-836.2z M-836-2634.1v-1.1h2.3l0.1,1.1H-836z M-834.6-2628.3v-6.8h1.1l0.3,2
				v4.9L-834.6-2628.3L-834.6-2628.3z M-833.3-2631.3l-0.4-2.2h0.6c0.1-1.2,0.7-1.9,1.9-1.9c0.7,0,1.2,0.2,1.5,0.6
				c0.3,0.4,0.5,1,0.5,2h-1.3c0-0.5-0.1-0.9-0.2-1c-0.1-0.2-0.4-0.3-0.8-0.3c-0.6,0-1,0.3-1.3,0.8
				C-833.1-2633-833.3-2632.2-833.3-2631.3z"/>
			<path class="st4" d="M-825.8-2628.3l-2.8-6.8h1.4l2.3,5.9h0.2v1L-825.8-2628.3L-825.8-2628.3z M-828.5-2625.2l-0.1-1.2l1-0.1
				c0.5-0.1,0.9-0.2,1.1-0.4c0.3-0.2,0.6-0.5,0.9-0.9c0.2-0.4,0.5-0.9,0.6-1.4l1.7-6h1.4l-2,6.3c-0.3,0.9-0.6,1.5-0.9,2
				c-0.3,0.5-0.7,0.9-1.1,1.1c-0.5,0.3-1,0.4-1.6,0.5L-828.5-2625.2z"/>
			<path class="st4" d="M-815.7-2627c-0.7,0-1.2-0.2-1.6-0.7c-0.4-0.4-0.6-1-0.6-1.8c0-0.4,0-0.8,0.1-1c0.1-0.3,0.1-0.8,0.1-1.1
				c0-0.3-0.1-0.5-0.3-0.6s-0.5-0.2-0.8-0.3c-0.3-0.1-0.5-0.1-0.8-0.1v-1c0.2,0,0.3,0,0.6-0.1c0.2,0,0.4-0.1,0.6-0.2
				c0.2-0.1,0.4-0.2,0.5-0.3s0.2-0.3,0.2-0.4c0-0.4,0-0.8-0.1-1.1c-0.1-0.4-0.1-0.7-0.1-1c0-0.8,0.2-1.3,0.6-1.7
				c0.4-0.4,1-0.6,1.6-0.6c0.3,0,0.5,0,0.7,0s0.3,0.1,0.5,0.1l-0.2,1.1c-0.2,0-0.3,0-0.5-0.1c-0.1,0-0.3,0-0.4,0
				c-0.3,0-0.6,0.1-0.7,0.3c-0.1,0.2-0.3,0.5-0.3,0.9s0.1,0.8,0.2,1c0.1,0.3,0.2,0.7,0.2,1c0,0.5-0.2,0.8-0.5,1
				c-0.3,0.2-0.8,0.4-1.2,0.4v0.2c0.6,0,1,0.1,1.2,0.4c0.3,0.3,0.5,0.6,0.5,1c0,0.4-0.1,0.8-0.2,1.1c-0.1,0.4-0.2,0.7-0.2,1
				c0,0.4,0.1,0.7,0.3,1c0.2,0.2,0.4,0.3,0.7,0.3c0.1,0,0.3,0,0.4,0c0.1,0,0.3,0,0.5,0l0.2,1.1c-0.2,0-0.3,0.1-0.5,0.1
				C-815.2-2627-815.5-2627-815.7-2627z"/>
			<path class="st4" d="M-812.7-2633.9v-1.2h6.5v1.2H-812.7z M-812.7-2630.7v-1.2h6.5v1.2H-812.7z"/>
			<path class="st4" d="M-804.9-2633.9v-1.2h6.5v1.2H-804.9z M-804.9-2630.7v-1.2h6.5v1.2H-804.9z"/>
			<path class="st4" d="M-795.3-2627c-0.3,0-0.5,0-0.7,0s-0.3-0.1-0.5-0.1l0.2-1.1c0.2,0,0.3,0,0.5,0s0.3,0,0.4,0
				c0.3,0,0.6-0.1,0.7-0.3c0.2-0.2,0.3-0.5,0.3-1c0-0.4-0.1-0.7-0.2-1c-0.1-0.4-0.2-0.7-0.2-1.1c0-0.4,0.2-0.8,0.5-1
				c0.3-0.3,0.8-0.4,1.2-0.4v-0.2c-0.6,0-1-0.1-1.2-0.4c-0.3-0.2-0.5-0.6-0.5-1c0-0.4,0.1-0.8,0.2-1c0.1-0.3,0.2-0.7,0.2-1
				s-0.1-0.7-0.3-0.9c-0.2-0.2-0.4-0.3-0.7-0.3c-0.1,0-0.3,0-0.4,0c-0.1,0-0.3,0-0.5,0.1l-0.2-1.1c0.2,0,0.3-0.1,0.5-0.1
				s0.4,0,0.7,0c0.7,0,1.2,0.2,1.6,0.6c0.4,0.4,0.6,1,0.6,1.7c0,0.4,0,0.8-0.1,1c-0.1,0.3-0.1,0.8-0.1,1.1c0,0.2,0.1,0.3,0.2,0.4
				c0.1,0.1,0.3,0.2,0.5,0.3s0.4,0.1,0.6,0.2c0.2,0,0.4,0.1,0.5,0.1v1c-0.2,0-0.5,0-0.8,0.1c-0.3,0.1-0.5,0.2-0.8,0.3
				c-0.2,0.1-0.3,0.3-0.3,0.6c0,0.4,0,0.8,0.1,1.1c0.1,0.4,0.1,0.8,0.1,1c0,0.8-0.2,1.3-0.6,1.8C-794-2627.2-794.6-2627-795.3-2627z
				"/>
		</g>
	</g>
</g>
<g transform="translate(1260,2698.344612520813)">
	<circle class="st2" cx="-774.7" cy="-2630.4" r="9.5"/>
	<g>
		<g class="st3">
			<path class="st4" d="M-758.4-2633.7v-1.2h5.6v1.2H-758.4z M-758.4-2625.7v-1.2h5.6v1.2H-758.4z M-756.3-2625.7v-9.2h1.3v9.2
				H-756.3z"/>
			<path class="st4" d="M-750.6-2625.7v-6.8h1.2l0.1,1.4v5.4H-750.6z M-746.4-2625.7v-4.5c0-0.4-0.1-0.8-0.3-1s-0.5-0.4-1-0.4
				c-1,0-1.6,0.7-1.6,1.9l-0.4-1.8h0.6c0-0.5,0.2-0.9,0.5-1c0.3-0.2,0.8-0.4,1.3-0.4c0.8,0,1.3,0.2,1.7,0.7c0.4,0.5,0.6,1,0.6,1.9
				v4.5L-746.4-2625.7L-746.4-2625.7z"/>
			<path class="st4" d="M-743.6-2631.5v-1.1h6.3v1.1H-743.6z M-741.7-2629v-5.7h1.3v5.7H-741.7z M-738.8-2625.6
				c-1,0-1.8-0.2-2.3-0.7c-0.5-0.5-0.7-1.1-0.7-2.1v-1.1h1.3v1.1c0,0.6,0.1,1,0.4,1.2c0.3,0.3,0.7,0.4,1.3,0.4c0.2,0,0.5,0,0.7,0
				c0.3,0,0.5-0.1,0.9-0.1l0.2,1.2c-0.3,0.1-0.6,0.1-0.9,0.1C-738.1-2625.5-738.5-2625.6-738.8-2625.6z"/>
			<path class="st4" d="M-730.7-2624.4c-0.7,0-1.2-0.2-1.6-0.7c-0.4-0.4-0.6-1-0.6-1.8c0-0.4,0-0.8,0.1-1c0.1-0.3,0.1-0.8,0.1-1.1
				c0-0.3-0.1-0.5-0.3-0.6s-0.5-0.2-0.8-0.3c-0.3-0.1-0.5-0.1-0.8-0.1v-1c0.2,0,0.3,0,0.6-0.1c0.2,0,0.4-0.1,0.6-0.2
				c0.2-0.1,0.4-0.2,0.5-0.3c0.1-0.1,0.2-0.3,0.2-0.4c0-0.4,0-0.8-0.1-1.1c-0.1-0.4-0.1-0.7-0.1-1c0-0.8,0.2-1.3,0.6-1.7
				c0.4-0.4,1-0.6,1.6-0.6c0.3,0,0.5,0,0.7,0c0.2,0,0.3,0.1,0.5,0.1l-0.2,1.1c-0.2,0-0.3,0-0.5-0.1c-0.1,0-0.3,0-0.4,0
				c-0.3,0-0.6,0.1-0.7,0.3c-0.1,0.2-0.3,0.5-0.3,0.9c0,0.4,0.1,0.8,0.2,1c0.1,0.3,0.2,0.7,0.2,1c0,0.5-0.2,0.8-0.5,1
				s-0.8,0.4-1.2,0.4v0.2c0.6,0,1,0.1,1.2,0.4c0.3,0.3,0.5,0.6,0.5,1s-0.1,0.8-0.2,1.1c-0.1,0.4-0.2,0.7-0.2,1s0.1,0.7,0.3,1
				c0.2,0.2,0.4,0.3,0.7,0.3c0.1,0,0.3,0,0.4,0c0.1,0,0.3,0,0.5,0l0.2,1.1c-0.2,0-0.3,0.1-0.5,0.1
				C-730.2-2624.4-730.4-2624.4-730.7-2624.4z"/>
			<path class="st4" d="M-724.4-2625.6c-2.1,0-3.1-1.5-3.1-4.7c0-3.2,1-4.8,3.1-4.8c2.1,0,3.1,1.6,3.1,4.8
				C-721.2-2627.1-722.3-2625.6-724.4-2625.6z M-724.4-2626.8c1.1,0,1.7-1.1,1.7-3.5s-0.6-3.6-1.7-3.6s-1.7,1.2-1.7,3.6
				C-726.1-2628-725.6-2626.8-724.4-2626.8z M-724.4-2629.3c-0.3,0-0.6-0.1-0.7-0.3c-0.2-0.2-0.3-0.4-0.3-0.7s0.1-0.6,0.3-0.7
				s0.4-0.3,0.7-0.3c0.3,0,0.6,0.1,0.7,0.3c0.1,0.2,0.3,0.4,0.3,0.7s-0.1,0.6-0.3,0.7C-723.9-2629.4-724.1-2629.3-724.4-2629.3z"/>
			<path class="st4" d="M-718.1-2624.4c-0.3,0-0.5,0-0.7,0c-0.2,0-0.3-0.1-0.5-0.1l0.2-1.1c0.2,0,0.3,0,0.5,0s0.3,0,0.4,0
				c0.3,0,0.6-0.1,0.7-0.3c0.2-0.2,0.3-0.5,0.3-1c0-0.4-0.1-0.7-0.2-1c-0.1-0.4-0.2-0.7-0.2-1.1c0-0.4,0.2-0.8,0.5-1
				c0.3-0.3,0.8-0.4,1.2-0.4v-0.2c-0.6,0-1-0.1-1.2-0.4c-0.3-0.2-0.5-0.6-0.5-1c0-0.4,0.1-0.8,0.2-1c0.1-0.3,0.2-0.7,0.2-1
				c0-0.4-0.1-0.7-0.3-0.9s-0.4-0.3-0.7-0.3c-0.1,0-0.3,0-0.4,0s-0.3,0-0.5,0.1l-0.2-1.1c0.2,0,0.3-0.1,0.5-0.1c0.2,0,0.4,0,0.7,0
				c0.7,0,1.2,0.2,1.6,0.6c0.4,0.4,0.6,1,0.6,1.7c0,0.4,0,0.8-0.1,1c-0.1,0.3-0.1,0.8-0.1,1.1c0,0.2,0.1,0.3,0.2,0.4
				c0.1,0.1,0.3,0.2,0.5,0.3c0.2,0.1,0.4,0.1,0.6,0.2c0.2,0,0.4,0.1,0.5,0.1v1c-0.2,0-0.5,0-0.8,0.1c-0.3,0.1-0.5,0.2-0.8,0.3
				c-0.2,0.1-0.3,0.3-0.3,0.6c0,0.4,0,0.8,0.1,1.1c0.1,0.4,0.1,0.8,0.1,1c0,0.8-0.2,1.3-0.6,1.8
				C-716.8-2624.6-717.3-2624.4-718.1-2624.4z"/>
		</g>
	</g>
</g>
<g transform="translate(1080,2724.670004725594)">
	<circle class="st2" cx="-765.9" cy="-2631.7" r="9.5"/>
	<g>
		<g class="st3">
			<path class="st4" d="M-858-2627v-9.2h1.3v9.2H-858z M-857.3-2631.6v-0.7h2.7v0.7H-857.3z M-856.8-2632v-0.6h1.5
				c0.5,0,0.9-0.1,1.1-0.3c0.3-0.2,0.4-0.6,0.4-1c0-0.4-0.1-0.7-0.4-1c-0.3-0.3-0.7-0.3-1.2-0.3h-1.4l-0.2-1.2h1.7
				c1,0,1.6,0.2,2.2,0.6c0.5,0.4,0.8,1,0.8,1.7c0,0.7-0.3,1.1-0.8,1.4c-0.5,0.4-1.1,0.5-2.1,0.5L-856.8-2632L-856.8-2632z
				 M-856.8-2627v-1.2h2c0.6,0,1-0.1,1.3-0.4s0.5-0.7,0.5-1.1c0-0.5-0.2-0.9-0.5-1.1c-0.3-0.3-0.8-0.4-1.4-0.4h-1.8l-0.2-0.6h2.3
				c1,0,1.6,0.2,2.2,0.6c0.6,0.4,0.8,1,0.8,1.7c0,0.8-0.3,1.4-0.8,1.9c-0.5,0.5-1.1,0.7-2.1,0.7L-856.8-2627L-856.8-2627z"/>
			<path class="st4" d="M-850.3-2627v-1.1h2.8v1.1H-850.3z M-849.9-2632.8v-1.1h3.6v1.1H-849.9z M-847-2635c-0.3,0-0.5-0.1-0.7-0.3
				s-0.3-0.4-0.3-0.7c0-0.3,0.1-0.5,0.3-0.7c0.2-0.2,0.4-0.3,0.7-0.3s0.5,0.1,0.7,0.3c0.2,0.2,0.3,0.4,0.3,0.7
				c0,0.3-0.1,0.5-0.3,0.7S-846.7-2635-847-2635z M-847.6-2627v-6.5h1.3v6.5H-847.6z M-846.4-2627v-1.1h2.3v1.1H-846.4z"/>
			<path class="st4" d="M-842.4-2627v-6.8h1.2l0.1,1.4v5.4H-842.4z M-838.2-2627v-4.5c0-0.4-0.1-0.8-0.3-1c-0.2-0.2-0.5-0.4-1-0.4
				c-1,0-1.6,0.7-1.6,1.9l-0.4-1.8h0.6c0-0.5,0.2-0.9,0.5-1c0.3-0.2,0.8-0.4,1.3-0.4c0.8,0,1.3,0.2,1.7,0.7c0.4,0.5,0.6,1,0.6,1.9
				v4.5L-838.2-2627L-838.2-2627z"/>
			<path class="st4" d="M-832.8-2626.9c-0.8,0-1.2-0.2-1.7-0.5s-0.6-0.9-0.6-1.4c0-0.8,0.3-1.3,0.9-1.7c0.6-0.4,1.3-0.6,2.3-0.6
				c0.4,0,0.8,0,1.1,0.1c0.3,0.1,0.6,0.1,0.9,0.2l-0.3,1c-0.3-0.1-0.6-0.1-0.9-0.1c-0.3,0-0.6,0-0.9,0c-1.2,0-1.8,0.4-1.8,1
				c0,0.3,0.1,0.6,0.3,0.8s0.5,0.3,0.9,0.3c0.5,0,0.8-0.1,1-0.2c0.3-0.1,0.5-0.4,0.7-0.6c0.2-0.2,0.2-0.5,0.2-0.7v-0.8l0.4,1.8h-0.6
				l0.2-0.2c0,0.4-0.1,0.8-0.3,1c-0.2,0.3-0.5,0.5-0.8,0.6C-832-2627-832.4-2626.9-832.8-2626.9z M-830.4-2627l-0.1-2l-0.2-0.6v-1.8
				c0-0.5-0.2-0.8-0.5-1c-0.3-0.2-0.8-0.3-1.4-0.4h-1.6l0.1-1.2h1.4c1.1,0,2,0.3,2.6,0.8c0.6,0.5,0.9,1.1,0.9,2.1v2.9l1.1,0.2v1.1
				L-830.4-2627z"/>
			<path class="st4" d="M-827.3-2627v-1.1h4.6v1.1H-827.3z M-827.1-2632.8v-1.1h2.3l0.1,1.1H-827.1z M-825.8-2627v-6.8h1.1l0.3,2
				v4.9L-825.8-2627L-825.8-2627z M-824.5-2630l-0.4-2.2h0.6c0.1-1.2,0.7-1.9,1.9-1.9c0.7,0,1.2,0.2,1.5,0.6c0.3,0.4,0.5,1,0.5,2
				h-1.3c0-0.5-0.1-0.9-0.2-1s-0.4-0.3-0.8-0.3c-0.6,0-1,0.3-1.3,0.8C-824.3-2631.7-824.5-2630.9-824.5-2630z"/>
			<path class="st4" d="M-817-2627l-2.8-6.8h1.4l2.3,5.9h0.2v1L-817-2627L-817-2627z M-819.6-2623.9l-0.1-1.2l1-0.1
				c0.5-0.1,0.9-0.2,1.1-0.4s0.6-0.5,0.9-0.9c0.2-0.4,0.5-0.9,0.6-1.4l1.7-6h1.4l-2,6.3c-0.3,0.9-0.6,1.5-0.9,2
				c-0.3,0.5-0.7,0.9-1.1,1.1c-0.5,0.3-1,0.4-1.6,0.5L-819.6-2623.9z"/>
			<path class="st4" d="M-806.9-2625.7c-0.7,0-1.2-0.2-1.6-0.7c-0.4-0.4-0.6-1-0.6-1.8c0-0.4,0-0.8,0.1-1c0.1-0.3,0.1-0.8,0.1-1.1
				c0-0.3-0.1-0.5-0.3-0.6c-0.2-0.1-0.5-0.2-0.8-0.3s-0.5-0.1-0.8-0.1v-1c0.2,0,0.3,0,0.6-0.1c0.2,0,0.4-0.1,0.6-0.2
				c0.2-0.1,0.4-0.2,0.5-0.3s0.2-0.3,0.2-0.4c0-0.4,0-0.8-0.1-1.1c-0.1-0.4-0.1-0.7-0.1-1c0-0.8,0.2-1.3,0.6-1.7
				c0.4-0.4,1-0.6,1.6-0.6c0.3,0,0.5,0,0.7,0s0.3,0.1,0.5,0.1l-0.2,1.1c-0.2,0-0.3,0-0.5-0.1c-0.1,0-0.3,0-0.4,0
				c-0.3,0-0.6,0.1-0.7,0.3c-0.1,0.2-0.3,0.5-0.3,0.9c0,0.4,0.1,0.8,0.2,1c0.1,0.3,0.2,0.7,0.2,1c0,0.5-0.2,0.8-0.5,1
				c-0.3,0.2-0.8,0.4-1.2,0.4v0.2c0.6,0,1,0.1,1.2,0.4c0.3,0.3,0.5,0.6,0.5,1c0,0.4-0.1,0.8-0.2,1.1c-0.1,0.4-0.2,0.7-0.2,1
				s0.1,0.7,0.3,1c0.2,0.2,0.4,0.3,0.7,0.3c0.1,0,0.3,0,0.4,0s0.3,0,0.5,0l0.2,1.1c-0.2,0-0.3,0.1-0.5,0.1
				C-806.4-2625.7-806.7-2625.7-806.9-2625.7z"/>
			<path class="st4" d="M-801.5-2626.9c-0.8,0-1.4-0.2-1.9-0.7c-0.5-0.5-0.8-1-0.8-1.7s0.2-1.2,0.7-1.7c0.5-0.5,1-0.8,1.8-0.9
				l0.8,0.8c-0.6,0.1-1,0.3-1.4,0.7c-0.3,0.3-0.5,0.7-0.5,1s0.1,0.7,0.4,0.9c0.3,0.2,0.7,0.4,1,0.4c0.9,0,1.5-0.4,2-1
				s0.7-1.6,0.7-2.9h1.2c0,1.6-0.4,2.9-1,3.8C-799.2-2627.4-800.2-2626.9-801.5-2626.9z M-798.2-2627l-3.3-3.7
				c-0.6-0.7-1-1.1-1.2-1.7c-0.3-0.5-0.4-1-0.4-1.4c0-0.9,0.2-1.4,0.7-1.9c0.5-0.5,1.1-0.7,2-0.7v1.2c-0.4,0-0.7,0.1-1,0.4
				c-0.3,0.3-0.3,0.6-0.3,1c0,0.3,0.1,0.7,0.3,1s0.4,0.7,0.7,1l4.3,4.8L-798.2-2627L-798.2-2627z M-799.5-2634.3
				c0-0.3-0.1-0.5-0.3-0.7c-0.2-0.2-0.5-0.2-0.8-0.2v-1.2c0.8,0,1.4,0.2,1.8,0.6c0.4,0.4,0.7,0.9,0.7,1.5L-799.5-2634.3
				L-799.5-2634.3z"/>
			<path class="st4" d="M-793.7-2626.9c-0.8,0-1.4-0.2-1.9-0.7c-0.5-0.5-0.8-1-0.8-1.7s0.2-1.2,0.7-1.7c0.5-0.5,1-0.8,1.8-0.9
				l0.8,0.8c-0.6,0.1-1,0.3-1.4,0.7c-0.3,0.3-0.5,0.7-0.5,1s0.1,0.7,0.4,0.9c0.3,0.2,0.7,0.4,1,0.4c0.9,0,1.5-0.4,2-1
				s0.7-1.6,0.7-2.9h1.2c0,1.6-0.4,2.9-1,3.8C-791.4-2627.4-792.3-2626.9-793.7-2626.9z M-790.4-2627l-3.3-3.7
				c-0.6-0.7-1-1.1-1.2-1.7c-0.3-0.5-0.4-1-0.4-1.4c0-0.9,0.2-1.4,0.7-1.9c0.5-0.5,1.1-0.7,2-0.7v1.2c-0.4,0-0.7,0.1-1,0.4
				c-0.3,0.3-0.3,0.6-0.3,1c0,0.3,0.1,0.7,0.3,1c0.2,0.3,0.4,0.7,0.7,1l4.3,4.8L-790.4-2627L-790.4-2627z M-791.7-2634.3
				c0-0.3-0.1-0.5-0.3-0.7c-0.2-0.2-0.5-0.2-0.8-0.2v-1.2c0.8,0,1.4,0.2,1.8,0.6c0.4,0.4,0.7,0.9,0.7,1.5L-791.7-2634.3
				L-791.7-2634.3z"/>
			<path class="st4" d="M-786.4-2625.7c-0.3,0-0.5,0-0.7,0s-0.3-0.1-0.5-0.1l0.2-1.1c0.2,0,0.3,0,0.5,0s0.3,0,0.4,0
				c0.3,0,0.6-0.1,0.7-0.3c0.2-0.2,0.3-0.5,0.3-1c0-0.4-0.1-0.7-0.2-1c-0.1-0.4-0.2-0.7-0.2-1.1c0-0.4,0.2-0.8,0.5-1
				c0.3-0.3,0.8-0.4,1.2-0.4v-0.2c-0.6,0-1-0.1-1.2-0.4c-0.3-0.2-0.5-0.6-0.5-1c0-0.4,0.1-0.8,0.2-1c0.1-0.3,0.2-0.7,0.2-1
				s-0.1-0.7-0.3-0.9s-0.4-0.3-0.7-0.3c-0.1,0-0.3,0-0.4,0c-0.1,0-0.3,0-0.5,0.1l-0.2-1.1c0.2,0,0.3-0.1,0.5-0.1s0.4,0,0.7,0
				c0.7,0,1.2,0.2,1.6,0.6c0.4,0.4,0.6,1,0.6,1.7c0,0.4,0,0.8-0.1,1c-0.1,0.3-0.1,0.8-0.1,1.1c0,0.2,0.1,0.3,0.2,0.4
				s0.3,0.2,0.5,0.3s0.4,0.1,0.6,0.2c0.2,0,0.4,0.1,0.5,0.1v1c-0.2,0-0.5,0-0.8,0.1c-0.3,0.1-0.5,0.2-0.8,0.3
				c-0.2,0.1-0.3,0.3-0.3,0.6c0,0.4,0,0.8,0.1,1.1c0.1,0.4,0.1,0.8,0.1,1c0,0.8-0.2,1.3-0.6,1.8
				C-785.2-2625.9-785.8-2625.7-786.4-2625.7z"/>
		</g>
	</g>
</g>
<g transform="translate(1080,2672.0194499660975)">
	<circle class="st2" cx="-765.9" cy="-2629.1" r="9.5"/>
	<g>
		<g class="st3">
			<path class="st4" d="M-749.5-2632.4v-1.2h5.6v1.2H-749.5z M-749.5-2624.4v-1.2h5.6v1.2H-749.5z M-747.5-2624.4v-9.2h1.3v9.2
				H-747.5z"/>
			<path class="st4" d="M-741.8-2624.4v-6.8h1.2l0.1,1.4v5.4H-741.8z M-737.6-2624.4v-4.5c0-0.4-0.1-0.8-0.3-1s-0.5-0.4-1-0.4
				c-1,0-1.6,0.7-1.6,1.9l-0.4-1.8h0.6c0-0.5,0.2-0.9,0.5-1c0.3-0.2,0.8-0.4,1.3-0.4c0.8,0,1.3,0.2,1.7,0.7c0.4,0.5,0.6,1,0.6,1.9
				v4.5L-737.6-2624.4L-737.6-2624.4z"/>
			<path class="st4" d="M-734.7-2630.2v-1.1h6.3v1.1H-734.7z M-732.9-2627.7v-5.7h1.3v5.7H-732.9z M-730-2624.3
				c-1,0-1.8-0.2-2.3-0.7c-0.5-0.5-0.7-1.1-0.7-2.1v-1.1h1.3v1.1c0,0.6,0.1,1,0.4,1.2c0.3,0.3,0.7,0.4,1.3,0.4c0.2,0,0.5,0,0.7,0
				c0.3,0,0.5-0.1,0.9-0.1l0.2,1.2c-0.3,0.1-0.6,0.1-0.9,0.1C-729.3-2624.2-729.7-2624.3-730-2624.3z"/>
			<path class="st4" d="M-721.9-2623.1c-0.7,0-1.2-0.2-1.6-0.7c-0.4-0.4-0.6-1-0.6-1.8c0-0.4,0-0.8,0.1-1c0.1-0.3,0.1-0.8,0.1-1.1
				c0-0.3-0.1-0.5-0.3-0.6c-0.2-0.1-0.5-0.2-0.8-0.3c-0.3-0.1-0.5-0.1-0.8-0.1v-1c0.2,0,0.3,0,0.6-0.1c0.2,0,0.4-0.1,0.6-0.2
				c0.2-0.1,0.4-0.2,0.5-0.3c0.1-0.1,0.2-0.3,0.2-0.4c0-0.4,0-0.8-0.1-1.1c-0.1-0.4-0.1-0.7-0.1-1c0-0.8,0.2-1.3,0.6-1.7
				c0.4-0.4,1-0.6,1.6-0.6c0.3,0,0.5,0,0.7,0s0.3,0.1,0.5,0.1l-0.2,1.1c-0.2,0-0.3,0-0.5-0.1c-0.1,0-0.3,0-0.4,0
				c-0.3,0-0.6,0.1-0.7,0.3c-0.1,0.2-0.3,0.5-0.3,0.9c0,0.4,0.1,0.8,0.2,1c0.1,0.3,0.2,0.7,0.2,1c0,0.5-0.2,0.8-0.5,1
				c-0.3,0.2-0.8,0.4-1.2,0.4v0.2c0.6,0,1,0.1,1.2,0.4c0.3,0.3,0.5,0.6,0.5,1c0,0.4-0.1,0.8-0.2,1.1c-0.1,0.4-0.2,0.7-0.2,1
				c0,0.4,0.1,0.7,0.3,1c0.2,0.2,0.4,0.3,0.7,0.3c0.1,0,0.3,0,0.4,0c0.1,0,0.3,0,0.5,0l0.2,1.1c-0.2,0-0.3,0.1-0.5,0.1
				C-721.4-2623.1-721.6-2623.1-721.9-2623.1z"/>
			<path class="st4" d="M-718.4-2624.4v-1.2h2.5v1.2H-718.4z M-718.3-2631.6v-1.3l2.2-0.8v1.3L-718.3-2631.6z M-716.1-2624.4v-9.2
				h1.3v9.2H-716.1z M-714.8-2624.4v-1.2h2.2v1.2H-714.8z"/>
			<path class="st4" d="M-709.2-2623.1c-0.3,0-0.5,0-0.7,0s-0.3-0.1-0.5-0.1l0.2-1.1c0.2,0,0.3,0,0.5,0s0.3,0,0.4,0
				c0.3,0,0.6-0.1,0.7-0.3c0.2-0.2,0.3-0.5,0.3-1c0-0.4-0.1-0.7-0.2-1c-0.1-0.4-0.2-0.7-0.2-1.1c0-0.4,0.2-0.8,0.5-1
				c0.3-0.3,0.8-0.4,1.2-0.4v-0.2c-0.6,0-1-0.1-1.2-0.4c-0.3-0.2-0.5-0.6-0.5-1s0.1-0.8,0.2-1c0.1-0.3,0.2-0.7,0.2-1
				c0-0.4-0.1-0.7-0.3-0.9c-0.2-0.2-0.4-0.3-0.7-0.3c-0.1,0-0.3,0-0.4,0s-0.3,0-0.5,0.1l-0.2-1.1c0.2,0,0.3-0.1,0.5-0.1s0.4,0,0.7,0
				c0.7,0,1.2,0.2,1.6,0.6c0.4,0.4,0.6,1,0.6,1.7c0,0.4,0,0.8-0.1,1c-0.1,0.3-0.1,0.8-0.1,1.1c0,0.2,0.1,0.3,0.2,0.4
				c0.1,0.1,0.3,0.2,0.5,0.3c0.2,0.1,0.4,0.1,0.6,0.2c0.2,0,0.4,0.1,0.5,0.1v1c-0.2,0-0.5,0-0.8,0.1c-0.3,0.1-0.5,0.2-0.8,0.3
				c-0.2,0.1-0.3,0.3-0.3,0.6c0,0.4,0,0.8,0.1,1.1c0.1,0.4,0.1,0.8,0.1,1c0,0.8-0.2,1.3-0.6,1.8
				C-708-2623.3-708.5-2623.1-709.2-2623.1z"/>
		</g>
	</g>
</g>
<g transform="translate(900,2698.344612520813)">
	<circle class="st2" cx="-757.1" cy="-2630.4" r="9.5"/>
	<g>
		<g class="st3">
			<path class="st4" d="M-849.2-2625.7v-9.2h1.3v9.2H-849.2z M-848.5-2630.3v-0.7h2.7v0.7H-848.5z M-848-2630.7v-0.6h1.5
				c0.5,0,0.9-0.1,1.1-0.3c0.3-0.2,0.4-0.6,0.4-1c0-0.4-0.1-0.7-0.4-1c-0.3-0.3-0.7-0.3-1.2-0.3h-1.4l-0.2-1.2h1.7
				c1,0,1.6,0.2,2.2,0.6c0.5,0.4,0.8,1,0.8,1.7c0,0.7-0.3,1.1-0.8,1.4c-0.5,0.4-1.1,0.5-2.1,0.5L-848-2630.7L-848-2630.7z
				 M-848-2625.7v-1.2h2c0.6,0,1-0.1,1.3-0.4c0.3-0.3,0.5-0.7,0.5-1.1s-0.2-0.9-0.5-1.1c-0.3-0.3-0.8-0.4-1.4-0.4h-1.8l-0.2-0.6h2.3
				c1,0,1.6,0.2,2.2,0.6c0.6,0.4,0.8,1,0.8,1.7s-0.3,1.4-0.8,1.9c-0.5,0.5-1.1,0.7-2.1,0.7L-848-2625.7L-848-2625.7z"/>
			<path class="st4" d="M-841.4-2625.7v-1.1h2.8v1.1H-841.4z M-841-2631.5v-1.1h3.6v1.1H-841z M-838.2-2633.7
				c-0.3,0-0.5-0.1-0.7-0.3s-0.3-0.4-0.3-0.7s0.1-0.5,0.3-0.7c0.2-0.2,0.4-0.3,0.7-0.3c0.3,0,0.5,0.1,0.7,0.3
				c0.2,0.2,0.3,0.4,0.3,0.7s-0.1,0.5-0.3,0.7S-837.9-2633.7-838.2-2633.7z M-838.8-2625.7v-6.5h1.3v6.5H-838.8z M-837.5-2625.7
				v-1.1h2.3v1.1H-837.5z"/>
			<path class="st4" d="M-833.5-2625.7v-6.8h1.2l0.1,1.4v5.4H-833.5z M-829.3-2625.7v-4.5c0-0.4-0.1-0.8-0.3-1
				c-0.2-0.2-0.5-0.4-1-0.4c-1,0-1.6,0.7-1.6,1.9l-0.4-1.8h0.6c0-0.5,0.2-0.9,0.5-1c0.3-0.2,0.8-0.4,1.3-0.4c0.8,0,1.3,0.2,1.7,0.7
				c0.4,0.5,0.6,1,0.6,1.9v4.5L-829.3-2625.7L-829.3-2625.7z"/>
			<path class="st4" d="M-824-2625.6c-0.8,0-1.2-0.2-1.7-0.5c-0.5-0.3-0.6-0.9-0.6-1.4c0-0.8,0.3-1.3,0.9-1.7
				c0.6-0.4,1.3-0.6,2.3-0.6c0.4,0,0.8,0,1.1,0.1c0.3,0.1,0.6,0.1,0.9,0.2l-0.3,1c-0.3-0.1-0.6-0.1-0.9-0.1s-0.6,0-0.9,0
				c-1.2,0-1.8,0.4-1.8,1c0,0.3,0.1,0.6,0.3,0.8s0.5,0.3,0.9,0.3c0.5,0,0.8-0.1,1-0.2c0.3-0.1,0.5-0.4,0.7-0.6
				c0.2-0.2,0.2-0.5,0.2-0.7v-0.8l0.4,1.8h-0.6l0.2-0.2c0,0.4-0.1,0.8-0.3,1c-0.2,0.3-0.5,0.5-0.8,0.6
				C-823.2-2625.7-823.5-2625.6-824-2625.6z M-821.5-2625.7l-0.1-2l-0.2-0.6v-1.8c0-0.5-0.2-0.8-0.5-1c-0.3-0.2-0.8-0.3-1.4-0.4
				h-1.6l0.1-1.2h1.4c1.1,0,2,0.3,2.6,0.8c0.6,0.5,0.9,1.1,0.9,2.1v2.9l1.1,0.2v1.1L-821.5-2625.7z"/>
			<path class="st4" d="M-818.5-2625.7v-1.1h4.6v1.1H-818.5z M-818.3-2631.5v-1.1h2.3l0.1,1.1H-818.3z M-817-2625.7v-6.8h1.1l0.3,2
				v4.9L-817-2625.7L-817-2625.7z M-815.6-2628.7l-0.4-2.2h0.6c0.1-1.2,0.7-1.9,1.9-1.9c0.7,0,1.2,0.2,1.5,0.6c0.3,0.4,0.5,1,0.5,2
				h-1.3c0-0.5-0.1-0.9-0.2-1c-0.1-0.2-0.4-0.3-0.8-0.3c-0.6,0-1,0.3-1.3,0.8C-815.5-2630.4-815.6-2629.6-815.6-2628.7z"/>
			<path class="st4" d="M-808.1-2625.7l-2.8-6.8h1.4l2.3,5.9h0.2v1L-808.1-2625.7L-808.1-2625.7z M-810.8-2622.6l-0.1-1.2l1-0.1
				c0.5-0.1,0.9-0.2,1.1-0.4c0.3-0.2,0.6-0.5,0.9-0.9c0.2-0.4,0.5-0.9,0.6-1.4l1.7-6h1.4l-2,6.3c-0.3,0.9-0.6,1.5-0.9,2
				c-0.3,0.5-0.7,0.9-1.1,1.1s-1,0.4-1.6,0.5L-810.8-2622.6z"/>
			<path class="st4" d="M-798.1-2624.4c-0.7,0-1.2-0.2-1.6-0.7c-0.4-0.4-0.6-1-0.6-1.8c0-0.4,0-0.8,0.1-1c0.1-0.3,0.1-0.8,0.1-1.1
				c0-0.3-0.1-0.5-0.3-0.6c-0.2-0.1-0.5-0.2-0.8-0.3c-0.3-0.1-0.5-0.1-0.8-0.1v-1c0.2,0,0.3,0,0.6-0.1c0.2,0,0.4-0.1,0.6-0.2
				c0.2-0.1,0.4-0.2,0.5-0.3c0.1-0.1,0.2-0.3,0.2-0.4c0-0.4,0-0.8-0.1-1.1c-0.1-0.4-0.1-0.7-0.1-1c0-0.8,0.2-1.3,0.6-1.7
				c0.4-0.4,1-0.6,1.6-0.6c0.3,0,0.5,0,0.7,0s0.3,0.1,0.5,0.1l-0.2,1.1c-0.2,0-0.3,0-0.5-0.1c-0.1,0-0.3,0-0.4,0
				c-0.3,0-0.6,0.1-0.7,0.3c-0.1,0.2-0.3,0.5-0.3,0.9c0,0.4,0.1,0.8,0.2,1c0.1,0.3,0.2,0.7,0.2,1c0,0.5-0.2,0.8-0.5,1
				c-0.3,0.2-0.8,0.4-1.2,0.4v0.2c0.6,0,1,0.1,1.2,0.4c0.3,0.3,0.5,0.6,0.5,1s-0.1,0.8-0.2,1.1c-0.1,0.4-0.2,0.7-0.2,1
				s0.1,0.7,0.3,1c0.2,0.2,0.4,0.3,0.7,0.3c0.1,0,0.3,0,0.4,0c0.1,0,0.3,0,0.5,0l0.2,1.1c-0.2,0-0.3,0.1-0.5,0.1
				C-797.6-2624.4-797.9-2624.4-798.1-2624.4z"/>
			<path class="st4" d="M-792.4-2623.7v-13.2h1.3v13.2H-792.4z"/>
			<path class="st4" d="M-784.6-2623.7v-13.2h1.3v13.2H-784.6z"/>
			<path class="st4" d="M-777.6-2624.4c-0.3,0-0.5,0-0.7,0s-0.3-0.1-0.5-0.1l0.2-1.1c0.2,0,0.3,0,0.5,0s0.3,0,0.4,0
				c0.3,0,0.6-0.1,0.7-0.3c0.2-0.2,0.3-0.5,0.3-1c0-0.4-0.1-0.7-0.2-1c-0.1-0.4-0.2-0.7-0.2-1.1c0-0.4,0.2-0.8,0.5-1
				c0.3-0.3,0.8-0.4,1.2-0.4v-0.2c-0.6,0-1-0.1-1.2-0.4c-0.3-0.2-0.5-0.6-0.5-1c0-0.4,0.1-0.8,0.2-1s0.2-0.7,0.2-1
				c0-0.4-0.1-0.7-0.3-0.9c-0.2-0.2-0.4-0.3-0.7-0.3c-0.1,0-0.3,0-0.4,0c-0.1,0-0.3,0-0.5,0.1l-0.2-1.1c0.2,0,0.3-0.1,0.5-0.1
				s0.4,0,0.7,0c0.7,0,1.2,0.2,1.6,0.6c0.4,0.4,0.6,1,0.6,1.7c0,0.4,0,0.8-0.1,1c-0.1,0.3-0.1,0.8-0.1,1.1c0,0.2,0.1,0.3,0.2,0.4
				c0.1,0.1,0.3,0.2,0.5,0.3s0.4,0.1,0.6,0.2c0.2,0,0.4,0.1,0.5,0.1v1c-0.2,0-0.5,0-0.8,0.1c-0.3,0.1-0.5,0.2-0.8,0.3
				c-0.2,0.1-0.3,0.3-0.3,0.6c0,0.4,0,0.8,0.1,1.1s0.1,0.8,0.1,1c0,0.8-0.2,1.3-0.6,1.8C-776.4-2624.6-776.9-2624.4-777.6-2624.4z"
				/>
		</g>
	</g>
</g>
</svg>
