<?xml version="1.0" encoding="utf-8"?>
<!-- Generator: Adobe Illustrator 22.1.0, SVG Export Plug-In . SVG Version: 6.00 Build 0)  -->
<svg version="1.1" id="Layer_1" xmlns="http://www.w3.org/2000/svg" xmlns:xlink="http://www.w3.org/1999/xlink" x="0px" y="0px"
	 viewBox="0 0 224.8 78.3" style="enable-background:new 0 0 224.8 78.3;" xml:space="preserve">
<g>
	<g>
		<g>
			<path d="M161.1,53c-2.4-0.5-1-1.3-1.4-3.3c-0.3-1.8-1.9-3.5-1.9-4.8c0.1-3.5,4.7-3.3,7.4-2.2c0.5,0.2,1.1,0.9,1.6,1.7
				c1.3,1.8,2.7,4.5,0.8,6.5C165.9,52.6,163.1,53.5,161.1,53"/>
			<path d="M133.7,49.4c-0.1,0-0.2-0.1-0.2-0.1c0-0.3,0-0.5,0.1-0.8c0.7-0.3,7.3-4.5,7.3-4.7c1.9-1.5,3.6-3.2,4.1-5.6
				c-4.7,1.5-9.1,4.9-14,5.3c-2.2-0.6-3.8-1.8-5.4-2.5c0-0.1,0-0.2,0-0.3c-2.6-1.7-2.8-3.8,0-4.8c4.9,1.1,12.3-2.4,16.9-4.2
				c1-0.5,4-1.5,4.8-2.4c1.1-6.4,0.4-12.9,0.8-19.1c1.6-4.5,4.3-1.4,7.1,0.8c0.2,0.4,0.8,0.8,1.4,1.6c0.1,0,0.2,0,0.3,0
				c1.2,1.9,1.5,2.7-0.3,4.4c-1.2,3-1.8,6.4-1.7,9.9c3.4-0.5,5.4-3.4,9.3-3.5c0.9,1.8,0.8,3.3-0.9,4.8c-2.8,1.4-5.9,2.6-9.1,4
				c-0.7,3.3-2,7.2-4.3,9.9c-0.3,0.4-2,1.9-2.4,2.2c-2.1,1.2-3.9,2.7-6.2,3.3C135,49.5,134.9,49.2,133.7,49.4"/>
			<path d="M73.6,60.3c-2.3-1.1-4.4-3.9-5.7-5.6c0.2-0.6,0.4-1.2,0.7-1.8c5.5-4.1,10.9-7.9,15.8-12.8c1.5-2.3,3.5-4.7,5.1-7
				c0.1,0,0.2-0.1,0.3-0.1c0-0.1,0-0.2,0-0.2c1.4-1.1,2-1.4,3.2,0.4c0.1,1.5-2.6,3.1-3.4,4.5c-1,2.7-2.2,5.4-3.6,8.1
				c-0.4,0.5-0.4,0.5-2.2,3.3c-1.5,1.1-3.4,4.1-4.2,5.9c-1.7,1-2.5,4-4.5,5.1C74.4,60.2,74,60.3,73.6,60.3"/>
			<path d="M105.8,41.2c-3.4-0.1-4.3-2.3-6.2-4.3c-0.1-0.9,0.5-1.4,0.6-2c0.8-0.2,0.8-0.2,1.4-0.5c1.4-0.2,1.9-0.1,3.4-0.2
				c1.9-0.4,6.9-3.9,8.6-2.4C113.8,35.9,109.4,40,105.8,41.2"/>
			<path d="M80,34.8c-1.3-1.1-1.5-6.3-1.6-8c1-2.9,3.9-3,6.3-1.1c1.9,2.5,3.3,3.6,1.2,6.6C83.6,34.3,82.5,34.4,80,34.8"/>
			<path d="M104.9,32.2c-0.4-1.6,1.8-5,1.2-5.8c-0.8,0.1-1.6,0.4-2.5,0.5c-2-1-4.2-3.4-3.4-5.3c1.5-1.7,0.9-1.3,3.3-1.4
				c2.2-1,4.4-2,6.7-2.9c3.8-0.7,5.5,1.4,5.7,5.1c-0.7,2.4-2.3,4.3-3.8,6.2c-2,1.1-3.8,2.3-5.6,3.5C105.9,32,105.4,32.1,104.9,32.2"
				/>
			<path d="M84.2,21.6c-0.8-0.7-0.5-1.1,0-1.8c-0.1-1.6-1-2.8-1.1-4.3c0.5-2.7,0-3.7,2.3-5.1c1.8,0.8,7.9,3.9,6.5,7.4
				C90.1,19.9,86.7,21.3,84.2,21.6"/>
			<path d="M4.6,62.9c-3.7-1.4-6.9-8.6-2.4-10.4c0.1-0.6,0.7-1.3,1.2-1.5c0-0.1,0-0.2,0-0.3c3.5-3.4,5.9-8.2,8.9-12
				c0.8-1.4,1.2-2.8,2.8-3.2c0.8,0.7,0.5,2.4,0.3,3.6c0.4,0.3,1.6,0.1,2.4-0.2c2.5-2.1,5.7-4,8.1-6.2c0.1-1.1,0.3-2.2,0.4-3.2
				c-1.7,0.4-7.4,1.7-6-1.4c2.1-0.8,5.3-2.7,6.5-4.9c0.6-2.3,0.2-4.9,1.4-6.6c2.4-1.2,5.2,1.8,5.7,4.3c1,1.7,3.9-0.4,0.2,4.8
				c-0.8,0.6-0.7,1.7-0.6,2.9c0.3,0,0.5,0,0.8,0.1c2.1-1.5,4.3-3.1,6.7-4.5c0.6-3.3,1.2-6.1,2.8-8.9c2.3-1.6,5.4,0.1,7.7,1.9
				c1.7-0.1,2.8-0.8,4.4-2c0.6-0.2,0.6-0.2,1.8-0.2c0.5,0.8,0.6,1.7,0.7,2.9c-1.1,3.4-10.8,4.5-9,8.5c1.7-0.1,2.3-2,2.9-3.2
				c1.9-1,6,0.2,8,1.7c2.2,2.7,0.5,3.6-2,5.3c-0.2,0.4-0.5,0.7-0.7,1.1c-0.2,5.4-0.2,5.4-0.1,12.8c-0.8,2-1.4,3-3,4.6
				c0,0.1,0,0.2,0,0.2c-0.1,0-0.2,0-0.3,0c-0.9,1.6-3.2,3.3-4.6,1.7c0-6,0.3-12.3,0.1-18.1c-0.1,0-0.2,0.1-0.3,0.1
				c-0.4,2.9-3.4,8.5-5.9,10.3c-2.3,0.1-4.3-1.2-4.9-3.2c0.2-0.6,0.7-0.7,1.2-1.2c1.3-2.7,0.9-7.6,0.9-10.3
				c-1.9,0.3-5.1,4.5-6.5,6.1c-1,0.8-1.9,1.5-2.8,2.3c-0.7,2.2-1.2,4.5-1.8,6.9c-0.5,1.1-1,2.2-1.5,3.3c-0.1,0-0.2,0-0.3,0
				c-0.9,1.5-3.7,5.4-5.4,2.9c0-0.3,0-0.7,0-1c1.4-2.1,2.5-5,2.6-7.4c-2.3,0.8-3.9,2.9-6.2,3c-1.3-0.3-2.7-0.7-3.6-1.1
				c0-0.1,0-0.2,0-0.3c-0.6-0.4-1.1-0.9-1.5-0.7c-0.4,1.3-0.8,2.7-1.2,4c-2.4,5-4.1,9.9-5.7,15.4C5.8,62.5,5.5,62.7,4.6,62.9"/>
			<path d="M9.1,34.1c-0.7-1,0.2-2.4,0.2-3.6c-1.1-3.4-2-6,0.1-8.8c0.3-0.1,0.7-0.1,1-0.1c1.6,1.1,3.8,3.6,5.2,5.5
				C17.4,31.1,12.1,32.9,9.1,34.1"/>
			<path d="M12.4,20.9c-0.9-0.3-0.8-0.5-1-0.8c0.4-0.8,0.8-1.3,0.6-2.2c-2.1-3.2-2-8.1,1.6-9.7c1.1,0.1,1.1,1,1.5,2.5
				c2.4,2.3,6.7,5.1,2.6,8.2C16.1,19.7,14.2,20.3,12.4,20.9"/>
			<path d="M187.1,33.4c-3.3-1-2.7-6.4-2.1-8.6c2.4-1.5,5.5,1.6,5.7,4.5C190.1,32.4,190.1,32.8,187.1,33.4"/>
			<path d="M204.8,58.2c-0.1-0.1-0.2-0.1-0.3-0.2c-4.2,0.3-8.2-0.1-11.9-1.5c-0.2-0.3-0.2-0.3-0.2-0.8c2.2-1.3,5.3-0.9,7-3.3
				c0.3-1.8,0.5-3.4,0.3-4.9c-4.2,0.3-6.4,3.2-9.7,4.4c-2.8,0.2-7.8-2.4-8.7-4.6c0-3.6,0.8-2,4.6-2.2c4.6-0.8,9.2-3.5,13.7-5.4
				c0.9-0.7,0.9-0.7,1.5-0.9c1-3,1.7-3.5,4.8-4.2c1.2-0.6,1.2-0.6,4.8-2.8c0.1-0.3,0.2-0.7,0.3-1.1c-5.4,0.6-9.8,5-14.1,7.9
				c-2.1,0.6-3.8,0.2-5.3-0.4c-1,0.1-6.4,1.1-3.7-1.1c1.6-0.6,2.8-1.8,4.5-2.5c4.1-2.7,8.8-5.1,13.2-7.6c0-0.7-0.3-1.1-0.4-1.2
				c0-0.9,0.2-1.4,0.4-2.1c-0.8,0.3-1.1,0.2-1.2,0.8c-2.6,1.2-3.7,3.5-5.9,1c-0.6,2.3-2.2,3.9-4.5,4c-2.3-1.2-2.4-5.1-2.8-6.9
				c-0.2-0.2-0.5-1.7-1.1-3.5c-1.1-2.1-3-4.5-1.7-6.5c1.7-1,2.3-1.4,3.7,0.8c1.2,0.9,2.7,2.2,3.9,3.8c0.1,0,0.2,0,0.3,0
				c0.7,2,2.5,4.6,2.4,7.1c1.2-0.7,3-2.1,2.1-3.7c-2-1.1-0.9-3,0.5-3.7c1,0.1,1,0.1,2.3-0.1c0-0.5-0.1-0.5-0.3-0.8
				c-1.7-0.6-1.4-1-0.9-2.3c-2-0.7-2.7-2.8-1.9-4.2c5.7-1.4,5.7-1.4,8.3-2.3c1.8-2.2,3.7-8.2,7.1-7.1c1.1,1.3,1.8,3.4,1.6,5.5
				c-0.4,0.9-1,1.7-1.2,2.7c0.3,0,0.7,0,1,0c2.4-1.2,3.5-2.6,4.9,1c2.3,1.2,3.1,0.9,2.3,4.3c-1.7,3.3-3.5,6.9-5.3,10.3
				c0,0.2-0.1,0.3,0,0.5c0.4,0.1,0.9,0.2,1.3,0.3c0.2,1.5,0.3,3.4,0.2,5.2c-1.4,2.1-3.2,2.1-5.5,2.4c-2.9,1.4-5.5,2.6-8.2,4.3
				c0,0.5-0.1,1.1,0.2,1.8c1.4,0,2.8-0.1,4.2-0.1c1.6,1,1.4,3.8,0.5,5.5c-1.6,0.2-2.5,0.4-3.8,1.1c-0.1,0.8-0.3,1.5-0.4,2.4
				C207.7,50.3,209.3,57.5,204.8,58.2 M213.7,21.1c1.4-1.4,2.4-2.8,2.3-4.8c-1.2-1-3.2-1.2-4.4-1.1c-0.2,0.5-0.2,0.5-1.6,3.2
				c0.1,0.1,0.3,0.1,0.4,0.2c-0.1,0-0.3,0.1-0.4,0.2c0,0.1,0.1,0.1,0.1,0.3c0.6,0.1,1-0.4,1.2-0.8c2.2-0.4,2.2,0.4,2.1,2.8
				C213.5,21,213.6,21,213.7,21.1"/>
		</g>
		<g>
			<polygon points="11,76.8 17.4,68.9 11.5,68.9 11.5,68.3 11.5,67.6 19.2,67.6 19.2,68.2 19.2,68.9 12.7,76.8 19.2,76.8 19.2,77.4 
				19.2,78.1 11,78.1 11,77.4 			"/>
			<polygon points="22.4,67.6 23.1,67.6 23.8,67.6 23.8,71.9 29.2,71.9 29.2,67.6 29.9,67.6 30.6,67.6 30.6,78.1 29.9,78.1 
				29.2,78.1 29.2,73.2 23.8,73.2 23.8,78.1 23.1,78.1 22.4,78.1 			"/>
			<polygon points="34.4,78.1 34.4,67.6 42,67.6 42,68.3 42,68.9 35.8,68.9 35.8,72.1 41.5,72.1 41.5,72.7 41.5,73.3 35.8,73.3 
				35.8,76.8 42.1,76.8 42.1,77.4 42.1,78.1 			"/>
			<path d="M49.4,67.6h0.7h0.7v7.5c0,1-0.3,1.8-0.8,2.4c-0.5,0.6-1.2,0.8-2.2,0.8s-1.7-0.3-2.3-0.8c-0.5-0.5-0.8-1.2-0.7-2.1v-0.7
				h1.3v0.7c0,0.6,0.1,1,0.4,1.3c0.3,0.3,0.7,0.5,1.2,0.5s0.9-0.2,1.2-0.5c0.3-0.4,0.4-0.9,0.4-1.5L49.4,67.6L49.4,67.6z"/>
			<polygon points="54.6,67.6 55.3,67.6 56,67.6 56,78.1 55.3,78.1 54.6,78.1 			"/>
			<path d="M62.9,67.6h0.8h0.8L68.2,78h-0.8h-0.8l-1.1-3h-4.2l-1.1,3h-0.7h-0.7L62.9,67.6z M62,73.8h3.3l-1.6-4.6l0,0L62,73.8z"/>
			<polygon points="72.4,78.1 71.7,78.1 71,78.1 71,67.6 71.9,67.6 72.7,67.6 77.9,76.1 77.9,67.6 78.6,67.6 79.3,67.6 79.3,78.1 
				78.5,78.1 77.8,78.1 72.4,69.6 			"/>
			<path d="M88,78.3c-1.4,0-2.6-0.5-3.5-1.5s-1.3-2.3-1.3-4c0-1.6,0.5-3,1.4-4s2.1-1.5,3.6-1.5c1.1,0,2.1,0.3,2.9,1
				c0.8,0.6,1.3,1.5,1.4,2.5h-1.4c-0.1-0.7-0.5-1.2-1-1.6c-0.5-0.4-1.2-0.6-2.1-0.6c-1,0-1.8,0.4-2.5,1.2c-0.6,0.8-0.9,1.8-0.9,3.1
				c0,1.4,0.3,2.4,0.9,3.2c0.6,0.7,1.5,1.1,2.6,1.1s1.9-0.4,2.6-1.2c0.1-0.1,0.2-0.3,0.3-0.4c0.1-0.2,0.2-0.4,0.3-0.8
				c0.1-0.3,0.1-0.6,0.1-0.9v-0.1h-3.3v-1.2h4.6v5.5h-0.9l-0.3-1.3l-0.1,0.1C90.5,77.8,89.4,78.3,88,78.3"/>
			<path d="M110.6,74.2c0,1.3-0.4,2.3-1.1,3c-0.7,0.7-1.7,1.1-3,1.1s-2.4-0.3-3.1-1c-0.7-0.7-1-1.7-1-3.1v-6.6h0.7h0.7v6.5
				c0,1,0.2,1.7,0.7,2.2s1.1,0.8,2,0.8s1.5-0.2,2-0.8c0.5-0.5,0.7-1.2,0.7-2.2v-6.5h0.7h0.7L110.6,74.2L110.6,74.2z"/>
			<polygon points="115.9,78.1 115.3,78.1 114.6,78.1 114.6,67.6 115.4,67.6 116.3,67.6 121.5,76.1 121.5,67.6 122.2,67.6 
				122.8,67.6 122.8,78.1 122.1,78.1 121.3,78.1 115.9,69.6 			"/>
			<polygon points="126.7,67.6 127.4,67.6 128.1,67.6 128.1,78.1 127.4,78.1 126.7,78.1 			"/>
			<polygon points="130.9,67.6 131.7,67.6 132.5,67.6 135.4,76.5 135.4,76.5 138.4,67.6 139.2,67.6 140,67.6 136.2,78.1 135.4,78.1 
				134.7,78.1 			"/>
			<polygon points="142.7,78.1 142.7,67.6 150.3,67.6 150.3,68.3 150.3,68.9 144.1,68.9 144.1,72.1 149.8,72.1 149.8,72.7 
				149.8,73.3 144.1,73.3 144.1,76.8 150.4,76.8 150.4,77.4 150.4,78.1 			"/>
			<path d="M154.1,67.6h0.7h4.1c1.1,0,1.9,0.2,2.5,0.7s0.9,1.2,0.9,2.1c0,0.9-0.3,1.6-0.9,2.1c-0.2,0.1-0.3,0.2-0.5,0.3l0.2,0.1
				c0.6,0.4,1,1,1,1.8l0.1,1.9c0,0.3,0,0.5,0.1,0.7c0.1,0.1,0.2,0.3,0.4,0.4v0.2H161c0-0.1-0.1-0.3-0.1-0.7s-0.1-0.8-0.1-1.2v-0.8
				c0-0.6-0.2-1.1-0.5-1.4c-0.3-0.3-0.8-0.4-1.5-0.4h-3.3v4.5h-0.7h-0.7V67.6z M155.5,72.3h3.5c0.7,0,1.1-0.1,1.4-0.4
				c0.3-0.3,0.5-0.7,0.5-1.4c0-0.6-0.2-1-0.5-1.3s-0.8-0.4-1.5-0.4h-3.4V72.3z"/>
			<path d="M172.5,70.7c-0.1-0.7-0.3-1.2-0.8-1.5c-0.5-0.4-1.1-0.5-1.8-0.5c-0.8,0-1.4,0.2-1.8,0.5c-0.4,0.3-0.6,0.8-0.6,1.3
				c0,0.4,0.1,0.7,0.4,0.9c0.3,0.2,0.8,0.4,1.7,0.6l1.8,0.4c1,0.2,1.7,0.6,2.1,1c0.4,0.4,0.6,1.1,0.6,1.9c0,0.9-0.4,1.7-1.1,2.2
				c-0.7,0.6-1.7,0.8-2.9,0.8c-1.4,0-2.4-0.3-3.2-1c-0.7-0.6-1.1-1.5-1.1-2.6v-0.1h1.3c0,0.8,0.3,1.3,0.8,1.7s1.3,0.6,2.2,0.6
				s1.5-0.1,2-0.4c0.4-0.3,0.7-0.7,0.7-1.3c0-0.5-0.2-0.9-0.4-1.1c-0.3-0.2-0.9-0.5-1.8-0.7l-1.8-0.4c-0.9-0.2-1.6-0.5-2-0.9
				s-0.6-0.9-0.6-1.6c0-1,0.3-1.8,1-2.4c0.7-0.6,1.6-0.9,2.7-0.9c1.2,0,2.1,0.3,2.8,0.9c0.7,0.6,1.1,1.4,1.1,2.4h-1.3V70.7z"/>
			<polygon points="177.5,67.6 178.2,67.6 178.9,67.6 178.9,78.1 178.2,78.1 177.5,78.1 			"/>
			<polygon points="185.4,68.9 181.9,68.9 181.9,68.3 181.9,67.6 190.4,67.6 190.4,68.3 190.4,68.9 186.8,68.9 186.8,78.1 
				186.1,78.1 185.4,78.1 			"/>
			<polygon points="196.7,73.9 192.8,67.6 193.6,67.6 194.4,67.6 197.4,72.7 197.4,72.7 200.4,67.6 201.3,67.6 202.1,67.6 
				198.1,73.9 198.1,78.1 197.4,78.1 196.7,78.1 			"/>
		</g>
	</g>
</g>
</svg>
